<svg width="25" height="25" viewBox="0 0 25 25" fill="none" xmlns="http://www.w3.org/2000/svg">
<path d="M4.65627 1.99768C6.09984 1.99886 7.29042 3.19117 7.28731 4.64192C7.28385 6.16101 6.02321 7.30594 4.6385 7.27295C3.23401 7.30138 1.99972 6.1283 2 4.63189C2 3.18058 3.19521 1.99657 4.65627 1.99768Z" fill="#9a009b"/>
<path d="M6.19272 23.9395H3.09984C2.69844 23.9395 2.37305 23.6141 2.37305 23.2127V10.0183C2.37305 9.6169 2.69844 9.2915 3.09984 9.2915H6.19272C6.59412 9.2915 6.91952 9.6169 6.91952 10.0183V23.2127C6.91945 23.6141 6.59412 23.9395 6.19272 23.9395Z" fill="#9a009b"/>
<path d="M23.9944 13.9241C23.9944 11.158 21.7521 8.91553 18.9859 8.91553H18.1926C16.6793 8.91553 15.3423 9.67061 14.5381 10.8247C14.4504 10.9505 14.3692 11.0812 14.2947 11.216C14.2689 11.2122 14.2536 11.2102 14.2533 11.2109V9.59128C14.2533 9.42468 14.1182 9.28954 13.9515 9.28954H10.0928C9.92615 9.28954 9.79102 9.42461 9.79102 9.59128V23.636C9.79102 23.8026 9.92602 23.9376 10.0926 23.9377L14.0355 23.9387C14.2021 23.9388 14.3373 23.8036 14.3373 23.6369V15.5229C14.3373 14.1204 15.4559 12.9558 16.8584 12.94C17.5744 12.9319 18.2234 13.2188 18.6912 13.6868C19.1528 14.1482 19.4383 14.7861 19.4383 15.4904V23.638C19.4383 23.8046 19.5733 23.9396 19.7399 23.9397L23.6925 23.9407C23.8591 23.9408 23.9943 23.8056 23.9943 23.6389V13.9241H23.9944Z" fill="#9a009b"/>
</svg>
