<svg width="25" height="25" viewBox="0 0 25 25" fill="none" xmlns="http://www.w3.org/2000/svg">
<path d="M0.00141765 19.7683C2.26478 21.1819 4.94961 22 7.82765 22C15.9131 22 22.4675 15.5446 22.4675 7.5829C22.4675 7.38411 22.4632 7.18679 22.4555 6.99006C22.7479 6.76342 24.5567 5.33575 25 4.41794C25 4.41794 23.5312 5.01908 22.0936 5.1607C22.0908 5.1607 22.0873 5.16136 22.0844 5.16136C22.0844 5.16136 22.0873 5.15996 22.0922 5.15651C22.2246 5.06935 24.0765 3.8279 24.3273 2.34871C24.3273 2.34871 23.2883 2.8948 21.8337 3.37256C21.5929 3.45134 21.3408 3.52879 21.0809 3.60059C20.1432 2.6151 18.8104 2 17.331 2C14.4933 2 12.1938 4.26383 12.1938 7.05627C12.1938 7.45032 12.2398 7.83386 12.3269 8.20212C11.9304 8.1861 5.89152 7.85268 1.7833 2.9533C1.7833 2.9533 -0.671993 6.25421 3.24646 9.64853C3.24646 9.64853 2.05531 9.60179 1.02765 8.99712C1.02765 8.99712 0.650202 12.9961 5.08774 14.0186C5.08774 14.0186 4.21456 14.3443 2.82155 14.112C2.82155 14.112 3.60055 17.3432 7.54311 17.6452C7.54311 17.6452 4.42553 20.4187 0 19.7679L0.00141765 19.7683Z" fill="#9a009b"/>
</svg>
