<svg width="25" height="25" viewBox="0 0 25 25" fill="none" xmlns="http://www.w3.org/2000/svg">
<path d="M6.26382 6.44514C6.93384 8.12527 7.78299 9.70934 8.90138 11.1314C9.04972 11.3206 9.2367 11.4889 9.43368 11.6259C9.72139 11.8265 9.99285 11.756 10.1098 11.4218C10.2336 11.0711 10.3471 10.3603 10.3539 9.99208C10.3723 9.0298 10.3511 8.39916 10.3002 7.43807C10.2672 6.8225 10.0517 6.282 9.15996 6.11886C8.88458 6.06828 8.85899 5.83811 9.03592 5.6085C9.40423 5.13048 9.91733 5.0543 10.4737 5.02415C11.3755 4.97469 12.2806 5.01505 13.1835 5.02415C13.5513 5.02757 13.9212 5.05766 14.2834 5.13783C14.7559 5.24242 15.0088 5.57891 15.0867 6.04722C15.127 6.28879 15.1477 6.53714 15.1421 6.78158C15.1186 7.83193 15.0688 8.88173 15.057 9.93153C15.052 10.3436 15.0816 10.7659 15.1684 11.1672C15.2899 11.7265 15.6649 11.8669 16.0484 11.4628C16.5353 10.9496 16.9647 10.3721 17.3677 9.78552C18.0998 8.71865 18.6467 7.54782 19.1174 6.34061C19.3609 5.7177 19.5473 5.5824 20.2072 5.58072C21.4476 5.57786 22.688 5.57673 23.9285 5.58072C24.1484 5.58184 24.3785 5.6029 24.5861 5.66998C24.9231 5.77912 25.0569 6.05818 24.978 6.41231C24.7938 7.24216 24.3522 7.94749 23.8792 8.62559C23.1202 9.71345 22.3248 10.7752 21.5479 11.8505C21.4488 11.9875 21.3615 12.1336 21.2803 12.2819C20.9898 12.8151 21.0099 13.114 21.4336 13.5579C22.1081 14.2644 22.8302 14.9254 23.4835 15.6512C23.9582 16.1792 24.3975 16.7521 24.7737 17.3552C25.2495 18.1179 24.9556 18.8363 24.0667 18.9642C23.5076 19.0444 20.7761 18.9649 20.6349 18.9642C19.9006 18.9609 19.2569 18.7022 18.7385 18.1958C18.162 17.632 17.638 17.0136 17.0844 16.4253C16.9176 16.2479 16.7396 16.078 16.5476 15.9296C16.0948 15.5789 15.6503 15.6568 15.4388 16.1968C15.258 16.6606 15.1018 17.8786 15.0945 17.9826C15.0565 18.5266 14.7156 18.8733 14.1155 18.9068C12.3831 19.0023 10.7043 18.8062 9.14045 17.9554C7.81495 17.2346 6.75649 16.2156 5.83962 15.0271C4.38315 13.1394 3.23273 11.0644 2.18243 8.92851C2.12875 8.81932 1.06495 6.52076 1.03637 6.41219C0.941341 6.04865 1.02999 5.70138 1.33248 5.58184C1.52106 5.50734 5.02844 5.58159 5.08678 5.58477C5.64644 5.61554 6.02807 5.8553 6.26382 6.44514Z" fill="#9a009b"/>
</svg>
