<svg width="30.000000" height="30.000000" viewBox="0 0 30 30" fill="none" xmlns="http://www.w3.org/2000/svg" xmlns:xlink="http://www.w3.org/1999/xlink">
	<desc>
			Created with Pixso.
	</desc>
	<defs>
		<filter id="filter_1_106_dd" x="0.000000" y="0.000000" width="30.000000" height="30.000000" filterUnits="userSpaceOnUse" color-interpolation-filters="sRGB">
			<feFlood flood-opacity="0" result="BackgroundImageFix"/>
			<feBlend mode="normal" in="SourceGraphic" in2="BackgroundImageFix" result="shape"/>
			<feColorMatrix in="SourceAlpha" type="matrix" values="0 0 0 0 0 0 0 0 0 0 0 0 0 0 0 0 0 0 127 0" result="hardAlpha"/>
			<feOffset dx="-1" dy="-1"/>
			<feGaussianBlur stdDeviation="0"/>
			<feComposite in2="hardAlpha" operator="arithmetic" k2="-1" k3="1"/>
			<feColorMatrix type="matrix" values="0 0 0 0 0 0 0 0 0 0 0 0 0 0 0 0 0 0 0.051 0"/>
			<feBlend mode="normal" in2="shape" result="effect_innerShadow_1"/>
			<feColorMatrix in="SourceAlpha" type="matrix" values="0 0 0 0 0 0 0 0 0 0 0 0 0 0 0 0 0 0 127 0" result="hardAlpha"/>
			<feOffset dx="-1" dy="-3"/>
			<feGaussianBlur stdDeviation="2.33333"/>
			<feComposite in2="hardAlpha" operator="arithmetic" k2="-1" k3="1"/>
			<feColorMatrix type="matrix" values="0 0 0 0 0 0 0 0 0 0 0 0 0 0 0 0 0 0 0.12 0"/>
			<feBlend mode="normal" in2="effect_innerShadow_1" result="effect_innerShadow_2"/>
		</filter>
	</defs>
	<g filter="url(#filter_1_106_dd)">
		<path id="Rectangle Copy 8" d="M10 0L20 0C25.5229 0 30 4.47705 30 10L30 20C30 25.5229 25.5229 30 20 30L10 30C4.47705 30 0 25.5229 0 20L0 10C0 4.47705 4.47705 0 10 0Z" fill="#FFFFFF" fill-opacity="1.000000" fill-rule="evenodd"/>
	</g>
	<path id="Rectangle Copy 8" d="M11 10C11 9.44775 11.4478 9 12 9C12.5522 9 13 9.44775 13 10L13 20C13 20.5522 12.5522 21 12 21C11.4478 21 11 20.5522 11 20L11 10Z" fill="#970C98" fill-opacity="1.000000" fill-rule="evenodd"/>
	<path id="Rectangle Copy 11" d="M17 10C17 9.44775 17.4478 9 18 9C18.5522 9 19 9.44775 19 10L19 20C19 20.5522 18.5522 21 18 21C17.4478 21 17 20.5522 17 20L17 10Z" fill="#970C98" fill-opacity="1.000000" fill-rule="evenodd"/>
</svg>
