<svg width="72" height="72" viewBox="0 0 72 72" fill="none" xmlns="http://www.w3.org/2000/svg">
<g clip-path="url(#clip0_3569_155)">
<path d="M36 72C45.5478 72 54.7045 68.2072 61.4558 61.4558C68.2072 54.7045 72 45.5478 72 36C72 26.4522 68.2072 17.2955 61.4558 10.5442C54.7045 3.79285 45.5478 0 36 0C26.4522 0 17.2955 3.79285 10.5442 10.5442C3.79285 17.2955 0 26.4522 0 36C0 45.5478 3.79285 54.7045 10.5442 61.4558C17.2955 68.2072 26.4522 72 36 72Z" fill="#2C254A"/>
<path d="M35.9999 72C41.9845 72.001 47.8749 70.5101 53.1383 67.6621C58.4017 64.8141 62.8721 60.6988 66.145 55.6886C69.418 50.6784 71.3903 44.9313 71.8836 38.9671C72.3768 33.0029 71.3754 27.0099 68.9699 21.53C67.5699 29.56 52.3399 32.65 41.2299 34.9C39.3299 35.28 37.5599 35.65 35.9999 36L32.4399 36.78C20.9399 39.28 4.35994 42.88 3.68994 51.9C6.66036 57.934 11.2616 63.0152 16.9723 66.5678C22.6829 70.1203 29.2745 72.0022 35.9999 72Z" fill="url(#paint0_linear_3569_155)"/>
<path d="M71.69 36C71.6981 44.0579 68.9791 51.8815 63.9755 58.1977C58.9718 64.5138 51.9781 68.9509 44.1321 70.7869C36.2861 72.623 28.0497 71.7499 20.763 68.3097C13.4763 64.8696 7.56822 59.0648 4 51.84C4.18 49.72 5.28 47.9 7.05 46.31C8.84 44.71 11.3 43.34 14.11 42.18C19.75 39.85 26.74 38.34 32.5 37.08C33.75 36.81 34.95 36.56 36.06 36.3C37.62 35.95 39.39 35.59 41.28 35.2H41.29C46.84 34.08 53.44 32.74 58.84 30.67C61.3343 29.7861 63.6783 28.5248 65.79 26.93C67.287 25.8109 68.4181 24.2726 69.04 22.51C70.7954 26.7909 71.6989 31.3732 71.7 36H71.69Z" stroke="white" stroke-opacity="0.13" stroke-width="0.5"/>
<path d="M36.0001 71.69C40.6876 71.69 45.3292 70.7668 49.6599 68.9729C53.9907 67.1791 57.9256 64.5498 61.2402 61.2352C64.5548 57.9206 67.1841 53.9857 68.9779 49.6549C70.7718 45.3242 71.6951 40.6826 71.6951 35.995C71.6951 31.3075 70.7718 26.6659 68.9779 22.3352C67.1841 18.0044 64.5548 14.0695 61.2402 10.7549C57.9256 7.44029 53.9907 4.81101 49.6599 3.01717C45.3292 1.22333 40.6876 0.300049 36.0001 0.300049C26.5345 0.300049 17.4566 4.06023 10.7634 10.7534C4.07024 17.4466 0.310059 26.5245 0.310059 35.9901C0.310059 45.4556 4.07024 54.5335 10.7634 61.2267C17.4566 67.9199 26.5345 71.68 36.0001 71.68V71.69Z" stroke="black" stroke-opacity="0.08" stroke-width="0.5"/>
<path d="M44.3323 49.222C43.913 49.1973 43.3333 49.1727 42.5933 49.148C41.8533 49.148 41.175 49.1357 40.5583 49.111C39.9663 49.111 39.4113 49.111 38.8933 49.111C38.2026 49.111 37.179 49.1357 35.8223 49.185C33.7996 49.259 32.2086 49.148 31.0493 48.852C29.3226 48.408 28.2126 47.5077 27.7193 46.151C27.2506 44.9423 27.411 43.6473 28.2003 42.266C28.669 41.5013 30.445 39.4417 33.5283 36.087C36.6363 32.7077 38.3013 30.7837 38.5233 30.315C38.696 29.945 38.733 29.5257 38.6343 29.057C38.3876 27.8977 37.6846 27.318 36.5253 27.318C35.9086 27.318 35.3043 27.4783 34.7123 27.799C34.145 28.1197 33.701 28.5513 33.3803 29.094C33.331 29.1927 33.2693 29.39 33.1953 29.686C33.1706 29.76 33.146 29.834 33.1213 29.908C33.1213 29.982 33.109 30.0683 33.0843 30.167C33.0843 30.241 33.0843 30.315 33.0843 30.389L32.8993 31.351C32.702 32.0417 32.295 32.5843 31.6783 32.979C31.0863 33.349 30.445 33.4477 29.7543 33.275C29.0636 33.0777 28.521 32.6707 28.1263 32.054C27.7563 31.4373 27.6576 30.7713 27.8303 30.056C27.8796 29.9327 27.9166 29.76 27.9413 29.538C28.04 29.02 28.0893 28.7487 28.0893 28.724C28.2373 27.8113 28.5086 27.0467 28.9033 26.43C29.6926 25.0487 30.7903 23.9757 32.1963 23.211C33.6023 22.4217 35.0576 22.027 36.5623 22.027C38.2396 22.0517 39.7443 22.5697 41.0763 23.581C42.4083 24.5677 43.284 25.986 43.7033 27.836C44.0733 29.5133 43.913 31.1043 43.2223 32.609C42.6796 33.6943 39.991 36.901 35.1563 42.229L34.0093 43.302C33.812 43.4993 33.6393 43.709 33.4913 43.931C34.0833 43.9803 34.7863 43.9803 35.6003 43.931C37.0556 43.8817 38.1533 43.857 38.8933 43.857C38.918 43.857 40.7556 43.894 44.4063 43.968C45.1216 43.9927 45.726 44.264 46.2193 44.782C46.7126 45.3 46.947 45.929 46.9223 46.669C46.9223 47.3843 46.6633 47.9887 46.1453 48.482C45.6273 48.9753 45.023 49.222 44.3323 49.222Z" fill="white"/>
</g>
<defs>
<linearGradient id="paint0_linear_3569_155" x1="35.2932" y1="-2.89311" x2="38.2922" y2="72.3959" gradientUnits="userSpaceOnUse">
<stop offset="0.599612" stop-color="#D39BFF"/>
<stop offset="0.920056" stop-color="#A54BD9"/>
<stop offset="1" stop-color="#970C98"/>
</linearGradient>
<clipPath id="clip0_3569_155">
<rect width="72" height="72" fill="white"/>
</clipPath>
</defs>
</svg>
