<svg width="72" height="72" viewBox="0 0 72 72" fill="none" xmlns="http://www.w3.org/2000/svg">
<g clip-path="url(#clip0_3569_160)">
<path d="M36 72C45.5478 72 54.7045 68.2072 61.4558 61.4558C68.2072 54.7045 72 45.5478 72 36C72 26.4522 68.2072 17.2955 61.4558 10.5442C54.7045 3.79285 45.5478 0 36 0C26.4522 0 17.2955 3.79285 10.5442 10.5442C3.79285 17.2955 0 26.4522 0 36C0 45.5478 3.79285 54.7045 10.5442 61.4558C17.2955 68.2072 26.4522 72 36 72Z" fill="url(#paint0_linear_3569_160)"/>
<path d="M36.0001 71.6901C45.4656 71.6901 54.5435 67.9299 61.2367 61.2367C67.9299 54.5435 71.6901 45.4656 71.6901 36.0001C71.6901 26.5345 67.9299 17.4566 61.2367 10.7634C54.5435 4.07024 45.4656 0.310059 36.0001 0.310059C26.5345 0.310059 17.4566 4.07024 10.7634 10.7634C4.07024 17.4566 0.310059 26.5345 0.310059 36.0001C0.310059 45.4656 4.07024 54.5435 10.7634 61.2367C17.4566 67.9299 26.5345 71.6901 36.0001 71.6901Z" stroke="black" stroke-opacity="0.08" stroke-width="0.5"/>
<path d="M29.3033 46.558C28.8346 46.0647 28.4153 45.3987 28.0453 44.56L27.7123 43.783C27.6136 43.5363 27.5273 43.3513 27.4533 43.228C27.1573 42.636 27.108 42.0193 27.3053 41.378C27.5026 40.7367 27.8973 40.268 28.4893 39.972C29.106 39.6513 29.735 39.5897 30.3763 39.787C31.0176 39.9843 31.4986 40.3913 31.8193 41.008C31.9426 41.2547 32.0783 41.5507 32.2263 41.896L32.5223 42.599C32.6456 42.9197 32.7566 43.1293 32.8553 43.228C33.2006 43.5733 33.7186 43.8447 34.4093 44.042C35.1246 44.2393 35.914 44.2887 36.7773 44.19C37.6653 44.0913 38.43 43.8693 39.0713 43.524C39.7126 43.1787 40.1566 42.784 40.4033 42.34C40.5513 42.0687 40.6006 41.5013 40.5513 40.638C40.428 38.7633 38.948 37.53 36.1113 36.938C35.322 37.1353 34.619 36.9627 34.0023 36.42C33.6076 36.1733 33.2993 35.8403 33.0773 35.421C32.88 34.977 32.806 34.5207 32.8553 34.052C32.954 33.386 33.2623 32.8433 33.7803 32.424C34.323 32.0047 34.9273 31.832 35.5933 31.906C35.692 31.9307 35.803 31.9553 35.9263 31.98C36.099 31.9307 36.284 31.8937 36.4813 31.869C36.6786 31.8197 36.8143 31.795 36.8883 31.795C36.987 31.7703 37.098 31.7457 37.2213 31.721C37.3446 31.6717 37.468 31.61 37.5913 31.536C38.3313 31.1167 38.726 30.6603 38.7753 30.167C38.8 29.5997 38.5286 29.0077 37.9613 28.391C37.246 27.6263 36.395 27.17 35.4083 27.022C34.4216 26.8493 33.398 27.0837 32.3373 27.725L32.1153 27.984L31.7823 28.502C31.585 28.798 31.4246 29.0323 31.3013 29.205C30.882 29.723 30.327 30.0313 29.6363 30.13C28.9703 30.204 28.3783 30.0313 27.8603 29.612C27.3423 29.1927 27.034 28.65 26.9353 27.984C26.8613 27.2933 27.034 26.689 27.4533 26.171C27.5273 26.097 27.6136 25.986 27.7123 25.838L28.0823 25.246C28.551 24.5553 29.0566 24.025 29.5993 23.655C31.0053 22.7177 32.4853 22.1997 34.0393 22.101C35.618 22.0023 37.0363 22.2243 38.2943 22.767C39.5523 23.3097 40.6376 24.0743 41.5503 25.061C43.0796 26.7137 43.7703 28.5267 43.6223 30.5C43.5483 31.906 43.018 33.1393 42.0313 34.2C44.128 35.7047 45.2626 37.752 45.4353 40.342C45.5586 42.1673 45.2873 43.6473 44.6213 44.782C43.906 46.04 42.8823 47.0267 41.5503 47.742C40.2183 48.4327 38.8123 48.8643 37.3323 49.037C35.8523 49.2097 34.3846 49.0987 32.9293 48.704C31.4986 48.3093 30.29 47.594 29.3033 46.558Z" fill="white"/>
</g>
<defs>
<linearGradient id="paint0_linear_3569_160" x1="33.3074" y1="-34.8418" x2="39.091" y2="72.4233" gradientUnits="userSpaceOnUse">
<stop offset="0.599612" stop-color="#D39BFF"/>
<stop offset="0.920056" stop-color="#A54BD9"/>
<stop offset="1" stop-color="#970C98"/>
</linearGradient>
<clipPath id="clip0_3569_160">
<rect width="72" height="72" fill="white"/>
</clipPath>
</defs>
</svg>
