<svg width="72" height="72" viewBox="0 0 72 72" fill="none" xmlns="http://www.w3.org/2000/svg">
<g clip-path="url(#clip0_3569_150)">
<path d="M36 72C45.5478 72 54.7045 68.2072 61.4558 61.4558C68.2072 54.7045 72 45.5478 72 36C72 26.4522 68.2072 17.2955 61.4558 10.5442C54.7045 3.79285 45.5478 0 36 0C26.4522 0 17.2955 3.79285 10.5442 10.5442C3.79285 17.2955 0 26.4522 0 36C0 45.5478 3.79285 54.7045 10.5442 61.4558C17.2955 68.2072 26.4522 72 36 72Z" fill="#2C254A"/>
<path d="M71.9 38.6999C71.4105 45.2119 69.1589 51.4681 65.3864 56.7985C61.6139 62.1289 56.4625 66.3328 50.4839 68.9599C44.5053 71.5871 37.9247 72.5385 31.4468 71.7123C24.9689 70.8862 18.8378 68.3135 13.71 64.2699C15.21 57.3999 24.58 55.5299 37.28 52.9999L38.48 52.7599L40.6 52.3599C46.1 51.3099 57.8 49.0799 64.55 46.5599C68.95 44.8999 71.39 42.2799 71.9 38.6899V38.6999Z" fill="url(#paint0_linear_3569_150)"/>
<path d="M36.0001 71.6901C45.4656 71.6901 54.5435 67.9299 61.2367 61.2367C67.9299 54.5435 71.6901 45.4656 71.6901 36.0001C71.6901 26.5345 67.9299 17.4566 61.2367 10.7634C54.5435 4.07024 45.4656 0.310059 36.0001 0.310059C26.5345 0.310059 17.4566 4.07024 10.7634 10.7634C4.07024 17.4566 0.310059 26.5345 0.310059 36.0001C0.310059 45.4656 4.07024 54.5435 10.7634 61.2367C17.4566 67.9299 26.5345 71.6901 36.0001 71.6901Z" stroke="black" stroke-opacity="0.08" stroke-width="0.5"/>
<path d="M40.6084 46.632C40.5837 47.3473 40.3124 47.9517 39.7944 48.445C39.2764 48.9383 38.6597 49.1727 37.9444 49.148C37.229 49.1233 36.6247 48.852 36.1314 48.334C35.638 47.816 35.4037 47.1993 35.4284 46.484C35.5024 44.116 35.5024 39.2813 35.4284 31.98L33.5784 33.201C32.9864 33.5957 32.3327 33.7313 31.6174 33.608C30.9267 33.46 30.384 33.09 29.9894 32.498C29.5947 31.906 29.459 31.2647 29.5824 30.574C29.7304 29.8587 30.1004 29.3037 30.6924 28.909L31.8394 28.169C32.2587 27.8977 32.53 27.725 32.6534 27.651C32.7767 27.5523 32.9494 27.4167 33.1714 27.244C33.3934 27.0467 33.5784 26.8493 33.7264 26.652L34.2814 25.875C34.4294 25.727 34.5034 25.431 34.5034 24.987C34.676 24.3457 34.9104 23.8277 35.2064 23.433C35.9217 22.4957 36.859 22.064 38.0184 22.138C38.931 22.212 39.6217 22.6437 40.0904 23.433C40.189 23.6303 40.2754 23.84 40.3494 24.062C40.374 24.1853 40.3987 24.3333 40.4234 24.506C40.448 24.6787 40.4727 24.876 40.4974 25.098C40.522 25.468 40.5344 25.986 40.5344 26.652C40.559 27.614 40.5837 29.0077 40.6084 30.833C40.6577 39.713 40.6577 44.9793 40.6084 46.632Z" fill="white"/>
</g>
<defs>
<linearGradient id="paint0_linear_3569_150" x1="40.6288" y1="22.57" x2="42.1636" y2="72.2944" gradientUnits="userSpaceOnUse">
<stop offset="0.599612" stop-color="#D39BFF"/>
<stop offset="0.920056" stop-color="#A54BD9"/>
<stop offset="1" stop-color="#970C98"/>
</linearGradient>
<clipPath id="clip0_3569_150">
<rect width="72" height="72" fill="white"/>
</clipPath>
</defs>
</svg>
