<svg width="60.000000" height="60.000000" viewBox="0 0 60 60" fill="none" xmlns="http://www.w3.org/2000/svg" xmlns:xlink="http://www.w3.org/1999/xlink">
	<desc>
			Created with Pixso.
	</desc>
	<defs/>
	<path id="Shape" d="M47.2051 30.7671C45.0098 31.2314 42.7751 31.9902 40.5308 33.0298C41.1492 33.8291 41.7117 34.6021 42.2068 35.3359C44.5493 38.8091 45.0984 40.8774 43.9839 42.0337C43.9761 42.042 43.9685 42.0508 43.9604 42.0586C43.9595 42.0596 43.9585 42.061 43.9573 42.062C43.95 42.0698 43.9419 42.0757 43.9343 42.083C43.9153 42.1011 43.896 42.1191 43.8757 42.1362C43.5947 42.3892 43.2627 42.5488 42.8716 42.6123L1.62842 59.9077L1.62524 59.9092C1.47876 59.9702 1.32471 60 1.17212 60C0.867432 60 0.567627 59.8809 0.343262 59.6567C0.00683594 59.3203 -0.0927734 58.814 0.0910645 58.375L17.3877 17.1289C17.457 16.7002 17.6399 16.3413 17.9358 16.0444C17.9365 16.0439 17.9373 16.043 17.938 16.0425C17.939 16.0415 17.9402 16.0405 17.9414 16.0391C17.9495 16.0312 17.958 16.0239 17.9661 16.0161C19.1223 14.9014 21.1909 15.4507 24.6641 17.793C25.3127 18.2305 25.9922 18.7217 26.6929 19.2563C30.4058 14.5732 32.2859 8.50439 32.2859 1.17188C32.2859 0.524414 32.8105 0 33.4578 0C34.105 0 34.6296 0.524414 34.6296 1.17188C34.6296 5.93066 33.8623 10.269 32.3491 14.0659C31.3784 16.501 30.0957 18.7266 28.5239 20.7139C30.3403 22.2173 32.2522 23.9634 34.1443 25.8555C35.925 27.6362 37.5754 29.4341 39.0173 31.1538C41.5981 29.9111 44.1787 29.0117 46.7197 28.4741C47.3538 28.3403 47.9749 28.7451 48.1089 29.3779C48.2429 30.0112 47.8381 30.6333 47.2051 30.7671ZM29.4084 30.5918C32.3218 33.5049 35.3293 36.1035 37.877 37.9087C40.3406 39.6538 41.5986 40.1245 42.1438 40.2485C42.0198 39.7036 41.5496 38.4453 39.804 35.9819C39.3772 35.3794 38.9048 34.751 38.3955 34.104C38.0701 34.2803 37.7446 34.4604 37.4192 34.6484C37.2349 34.7549 37.0332 34.8057 36.8345 34.8057C36.4294 34.8057 36.0356 34.5957 35.8186 34.2197C35.4949 33.6592 35.687 32.9424 36.2473 32.6191C36.459 32.4966 36.6704 32.3774 36.8821 32.2598C35.561 30.709 34.0713 29.0977 32.4871 27.5132C30.6448 25.6709 28.7651 23.9551 26.9875 22.4858C26.8442 22.6362 26.6992 22.7856 26.552 22.9326C26.3235 23.1616 26.0234 23.2759 25.7234 23.2759C25.4236 23.2759 25.1238 23.1616 24.8948 22.9326C24.4373 22.4751 24.4373 21.7329 24.8948 21.2754C24.9785 21.1919 25.0596 21.1064 25.1416 21.022C24.759 20.7319 24.3838 20.4551 24.0183 20.1963C21.5547 18.4507 20.2966 17.9805 19.7517 17.8564C19.8755 18.4014 20.3459 19.6592 22.0916 22.123C23.8965 24.6709 26.4951 27.6782 29.4084 30.5918ZM20.6863 49.374L18.1604 50.4331C18.4011 49.8252 18.6133 49.1328 18.7671 48.3477C19.7051 43.5605 18.1738 37.6411 14.2183 30.7476L15.4863 27.7241C16.49 28.9316 17.6335 30.6411 18.0967 31.7188C18.2874 32.1626 18.7195 32.4282 19.1738 32.4282C19.3281 32.4282 19.4851 32.3975 19.636 32.3325C20.2305 32.0771 20.5054 31.3882 20.25 30.7935C19.5627 29.1943 17.8203 26.7065 16.4873 25.3374L18.4248 20.7173C18.7642 21.3394 19.1846 22.021 19.6887 22.7686C20.0359 23.2832 20.416 23.8169 20.825 24.3652C24.8337 30.4482 24.7429 36.6738 23.9592 40.8281C23.126 45.2466 21.3416 48.4819 20.6863 49.374ZM24.1526 47.9204L29.7158 45.5874C30.2625 45.1079 32.8 42.5864 32.9683 37.0537C31.2732 35.6284 29.5039 34.002 27.751 32.249C27.165 31.6631 26.594 31.0757 26.0391 30.4893C27.0454 34.585 26.8064 38.3784 26.2622 41.2627C25.7754 43.8452 24.9558 46.1582 24.1526 47.9204ZM14.4238 52C14.7803 51.6782 16.0334 50.3799 16.5061 47.6865C16.9788 44.9912 16.7053 40.4141 13.0618 33.5059L9.5498 41.8799C12.2029 46.9722 12.0225 50.8511 11.3359 53.2949L14.4238 52ZM33.7554 43.8936C34.3826 42.5957 34.9365 40.9229 35.1836 38.834C35.8909 39.374 36.5769 39.8701 37.2314 40.3115C37.9792 40.8159 38.6609 41.2358 39.2834 41.5752L33.7554 43.8936ZM9.29468 51.6514C9.05005 53.1768 8.50635 54.1787 8.24463 54.5913L3.36035 56.6396L8.3208 44.811C9.29126 47.2441 9.62769 49.5747 9.29468 51.6514Z" clip-rule="evenodd" fill="#980099" fill-opacity="1.000000" fill-rule="evenodd"/>
	<path id="Path" d="M21.1975 33.8125C20.9316 33.2222 20.238 32.959 19.6479 33.2246C19.0759 33.4819 18.811 34.1411 19.0369 34.7188C19.2144 35.1831 19.6577 35.4722 20.1313 35.4722C20.2598 35.4722 20.3904 35.4512 20.5186 35.4062C21.1294 35.1924 21.4514 34.5239 21.2375 33.9131C21.2263 33.8813 21.2112 33.8433 21.1975 33.8125Z" fill="#980099" fill-opacity="1.000000" fill-rule="evenodd"/>
	<path id="Path" d="M43.7617 18.1279C43.9905 18.3564 44.2905 18.4712 44.5903 18.4712C44.8904 18.4712 45.1902 18.3564 45.4189 18.1279C48.0374 15.5093 52.2793 14.3096 55.3765 14.0596C56.0215 14.0073 56.5022 13.4419 56.4502 12.7974C56.3982 12.1519 55.834 11.6733 55.188 11.7231C51.6755 12.0068 46.8293 13.4028 43.7617 16.4707C43.304 16.9282 43.304 17.6699 43.7617 18.1279Z" fill="#980099" fill-opacity="1.000000" fill-rule="evenodd"/>
	<path id="Path" d="M59.1316 11.9492C59.0984 11.9399 59.0647 11.9312 59.0305 11.9229C58.4026 11.7661 57.7666 12.1489 57.6101 12.7769C57.4539 13.4048 57.8362 14.041 58.4644 14.1973L58.5242 14.2124C58.6257 14.2397 58.728 14.2529 58.8286 14.2529C59.3459 14.2529 59.8193 13.9077 59.9597 13.3848C60.1274 12.7593 59.7566 12.1167 59.1316 11.9492Z" fill="#980099" fill-opacity="1.000000" fill-rule="evenodd"/>
	<path id="Path" d="M8.61377 9.79932L9.78564 9.79932L9.78564 10.9712C9.78564 11.6182 10.3103 12.1431 10.9575 12.1431C11.6047 12.1431 12.1294 11.6182 12.1294 10.9712L12.1294 9.79932L13.3013 9.79932C13.9485 9.79932 14.4731 9.27441 14.4731 8.62744C14.4731 7.98047 13.9485 7.45557 13.3013 7.45557L12.1294 7.45557L12.1294 6.28369C12.1294 5.63672 11.6047 5.11182 10.9575 5.11182C10.3103 5.11182 9.78564 5.63672 9.78564 6.28369L9.78564 7.45557L8.61377 7.45557C7.96655 7.45557 7.44189 7.98047 7.44189 8.62744C7.44189 9.2749 7.96655 9.79932 8.61377 9.79932Z" fill="#980099" fill-opacity="1.000000" fill-rule="evenodd"/>
	<path id="Path" d="M36.0354 21.1665L37.2073 21.1665L37.2073 22.3384C37.2073 22.9858 37.7322 23.5103 38.3792 23.5103C39.0266 23.5103 39.551 22.9858 39.551 22.3384L39.551 21.1665L40.7229 21.1665C41.3701 21.1665 41.8948 20.6421 41.8948 19.9946C41.8948 19.3477 41.3701 18.8228 40.7229 18.8228L39.551 18.8228L39.551 17.6509C39.551 17.0039 39.0266 16.479 38.3792 16.479C37.7322 16.479 37.2073 17.0039 37.2073 17.6509L37.2073 18.8228L36.0354 18.8228C35.3882 18.8228 34.8635 19.3477 34.8635 19.9946C34.8635 20.6421 35.3882 21.1665 36.0354 21.1665Z" fill="#980099" fill-opacity="1.000000" fill-rule="evenodd"/>
	<path id="Path" d="M52.3242 48.9395L51.1523 48.9395L51.1523 47.7676C51.1523 47.1206 50.6277 46.5957 49.9805 46.5957C49.3333 46.5957 48.8086 47.1206 48.8086 47.7676L48.8086 48.9395L47.6367 48.9395C46.9895 48.9395 46.4648 49.4644 46.4648 50.1113C46.4648 50.7583 46.9895 51.2832 47.6367 51.2832L48.8086 51.2832L48.8086 52.4551C48.8086 53.1021 49.3333 53.627 49.9805 53.627C50.6277 53.627 51.1523 53.1021 51.1523 52.4551L51.1523 51.2832L52.3242 51.2832C52.9714 51.2832 53.4961 50.7583 53.4961 50.1113C53.4961 49.4644 52.9714 48.9395 52.3242 48.9395Z" fill="#980099" fill-opacity="1.000000" fill-rule="evenodd"/>
	<path id="Shape" d="M49.2151 3.51562C49.2151 5.4541 47.6379 7.03125 45.6995 7.03125C43.761 7.03125 42.1838 5.4541 42.1838 3.51562C42.1838 1.57715 43.761 0 45.6995 0C47.6379 0 49.2151 1.57715 49.2151 3.51562ZM46.8713 3.51562C46.8713 2.86963 46.3457 2.34375 45.6995 2.34375C45.0532 2.34375 44.5276 2.86963 44.5276 3.51562C44.5276 4.16162 45.0532 4.6875 45.6995 4.6875C46.3457 4.6875 46.8713 4.16162 46.8713 3.51562Z" clip-rule="evenodd" fill="#980099" fill-opacity="1.000000" fill-rule="evenodd"/>
	<path id="Shape" d="M49.5117 23.8618C49.5117 21.9233 51.0889 20.3462 53.0273 20.3462C54.9658 20.3462 56.543 21.9233 56.543 23.8618C56.543 25.8003 54.9658 27.3774 53.0273 27.3774C51.0889 27.3774 49.5117 25.8003 49.5117 23.8618ZM51.8555 23.8618C51.8555 24.5078 52.3811 25.0337 53.0273 25.0337C53.6736 25.0337 54.1992 24.5078 54.1992 23.8618C54.1992 23.2158 53.6736 22.6899 53.0273 22.6899C52.3811 22.6899 51.8555 23.2158 51.8555 23.8618Z" clip-rule="evenodd" fill="#980099" fill-opacity="1.000000" fill-rule="evenodd"/>
	<path id="Shape" d="M26.7778 7.68994C26.7778 9.62842 25.2007 11.2056 23.2622 11.2056C21.3237 11.2056 19.7466 9.62842 19.7466 7.68994C19.7466 5.75146 21.3237 4.17432 23.2622 4.17432C25.2007 4.17432 26.7778 5.75146 26.7778 7.68994ZM24.4341 7.68994C24.4341 7.04395 23.9084 6.51807 23.2622 6.51807C22.616 6.51807 22.0903 7.04395 22.0903 7.68994C22.0903 8.33594 22.616 8.86182 23.2622 8.86182C23.9084 8.86182 24.4341 8.33594 24.4341 7.68994Z" clip-rule="evenodd" fill="#980099" fill-opacity="1.000000" fill-rule="evenodd"/>
	<path id="Path" d="M52.6394 34.46C52.6394 33.8145 52.113 33.2881 51.4675 33.2881C50.822 33.2881 50.2957 33.8145 50.2957 34.46C50.2957 35.1055 50.822 35.6318 51.4675 35.6318C52.113 35.6318 52.6394 35.1055 52.6394 34.46Z" fill="#980099" fill-opacity="1.000000" fill-rule="evenodd"/>
	<path id="Path" d="M39.28 11.1396C39.9255 11.1396 40.4519 10.6133 40.4519 9.96777C40.4519 9.32227 39.9255 8.7959 39.28 8.7959C38.6345 8.7959 38.1082 9.32227 38.1082 9.96777C38.1082 10.6133 38.6348 11.1396 39.28 11.1396Z" fill="#980099" fill-opacity="1.000000" fill-rule="evenodd"/>
	<path id="Path" d="M54.9829 42.0771C54.3376 42.0771 53.811 42.6035 53.811 43.249C53.811 43.8945 54.3376 44.4209 54.9829 44.4209C55.6284 44.4209 56.1548 43.8945 56.1548 43.249C56.1548 42.6035 55.6284 42.0771 54.9829 42.0771Z" fill="#980099" fill-opacity="1.000000" fill-rule="evenodd"/>
	<path id="Path" d="M16.3115 3.51562C16.957 3.51562 17.4834 2.98926 17.4834 2.34375C17.4834 1.69824 16.957 1.17188 16.3115 1.17188C15.666 1.17188 15.1396 1.69824 15.1396 2.34375C15.1396 2.98926 15.666 3.51562 16.3115 3.51562Z" fill="#980099" fill-opacity="1.000000" fill-rule="evenodd"/>
</svg>
