<svg width="70.199951" height="60.263184" viewBox="0 0 70.2 60.2632" fill="none" xmlns="http://www.w3.org/2000/svg" xmlns:xlink="http://www.w3.org/1999/xlink">
	<desc>
			Created with Pixso.
	</desc>
	<defs/>
	<path id="Path" d="M10.6794 43.9858C10.1025 44.0483 9.65356 44.5371 9.65356 45.1304L9.65283 47.8257L7.31885 46.4785C6.76807 46.1602 6.06396 46.3491 5.74609 46.8999L5.68921 47.0117C5.45483 47.5425 5.65356 48.1758 6.16748 48.4727L8.50098 49.8193L6.16748 51.1685C5.6167 51.4863 5.42798 52.1904 5.74609 52.7412C5.9541 53.1016 6.33569 53.3169 6.7439 53.3169L6.86377 53.311C7.02246 53.2944 7.17725 53.2446 7.31885 53.1626L9.65283 51.8135L9.65356 54.5107C9.65356 55.147 10.1689 55.6621 10.8049 55.6621L10.9304 55.6558C11.5073 55.5933 11.9563 55.1045 11.9563 54.5107L11.9558 51.8145L14.291 53.1626C14.468 53.2651 14.6655 53.3174 14.866 53.3174C15.2742 53.3174 15.6558 53.1016 15.864 52.7412L15.9207 52.6294C16.155 52.0986 15.9565 51.4653 15.4424 51.1685L13.1069 49.8203L15.4424 48.4727C15.9932 48.1548 16.1819 47.4507 15.864 46.8999L15.7954 46.7944C15.4529 46.3262 14.8052 46.1816 14.291 46.4785L11.9558 47.8267L11.9563 45.1304C11.9563 44.4946 11.4409 43.979 10.8049 43.979L10.6794 43.9858Z" fill="#9A009B" fill-opacity="1.000000" fill-rule="evenodd"/>
	<path id="Path" d="M39.7852 43.9858C39.2083 44.0483 38.7593 44.5371 38.7593 45.1304L38.759 47.8257L36.4246 46.4785C35.8738 46.1602 35.1697 46.3491 34.8518 46.8999L34.7949 47.0117C34.5605 47.5425 34.7593 48.1758 35.2732 48.4727L37.6069 49.8203L35.2732 51.1685C34.7224 51.4868 34.5337 52.1909 34.8518 52.7417C35.0598 53.1021 35.4414 53.3174 35.8496 53.3174L35.9695 53.311C36.1282 53.2944 36.283 53.2446 36.4246 53.1631L38.759 51.8145L38.7593 54.5107C38.7593 55.147 39.2749 55.6621 39.9106 55.6621L40.0361 55.6558C40.613 55.5933 41.062 55.1045 41.062 54.5107L41.061 51.8145L43.3967 53.1626C43.5737 53.2651 43.7712 53.3174 43.9717 53.3174C44.3799 53.3174 44.7615 53.1016 44.9697 52.7412L45.0264 52.6294C45.2607 52.0986 45.0623 51.4653 44.5481 51.1685L42.2131 49.8203L44.5481 48.4727C45.0989 48.1548 45.2876 47.4507 44.9697 46.8999L44.9011 46.7944C44.5586 46.3262 43.9109 46.1816 43.3967 46.4785L41.061 47.8267L41.062 45.1304C41.062 44.4946 40.5466 43.979 39.9106 43.979L39.7852 43.9858Z" fill="#9A009B" fill-opacity="1.000000" fill-rule="evenodd"/>
	<path id="Path" d="M25.2322 43.9863C24.6553 44.0488 24.2063 44.5376 24.2063 45.1309L24.2058 47.8267L21.8716 46.479C21.3208 46.1606 20.6167 46.3496 20.2988 46.9004L20.2419 47.0122C20.0076 47.5435 20.2063 48.1763 20.7202 48.4731L23.0549 49.8208L20.7202 51.1689C20.1694 51.4868 19.9807 52.1909 20.2988 52.7417C20.5068 53.1021 20.8884 53.3174 21.2966 53.3174L21.4165 53.311C21.5752 53.2944 21.73 53.2446 21.8716 53.1631L24.2058 51.8145L24.2063 54.5112C24.2063 55.147 24.7219 55.6626 25.3577 55.6626L25.4832 55.6558C26.0601 55.5933 26.509 55.1045 26.509 54.5112L26.509 51.8145L28.8438 53.1631C29.0208 53.2656 29.2183 53.3174 29.4187 53.3174C29.8269 53.3174 30.2085 53.1021 30.4167 52.7417L30.4734 52.6299C30.7078 52.0991 30.5093 51.4658 29.9951 51.1689L27.6599 49.8208L29.9951 48.4731C30.5459 48.1553 30.7346 47.4507 30.4167 46.9004L30.3481 46.7949C30.0056 46.3267 29.3579 46.1821 28.8438 46.479L26.509 47.8267L26.509 45.1309C26.509 44.4951 25.9937 43.9795 25.3577 43.9795L25.2322 43.9863Z" fill="#9A009B" fill-opacity="1.000000" fill-rule="evenodd"/>
	<path id="Path" d="M54.3381 43.9863C53.7612 44.0488 53.312 44.5376 53.312 45.1309L53.312 47.8267L50.9773 46.479C50.4268 46.1606 49.7224 46.3496 49.4045 46.9004L49.3477 47.0122C49.1133 47.5435 49.312 48.1763 49.8259 48.4731L52.1599 49.8208L49.8259 51.1689C49.2751 51.4868 49.0864 52.1909 49.4045 52.7417C49.6125 53.1021 49.9941 53.3174 50.4026 53.3174L50.5222 53.311C50.6809 53.2944 50.8357 53.2446 50.9773 53.1631L53.312 51.8145L53.312 54.5112C53.312 55.147 53.8276 55.6626 54.4634 55.6626L54.5889 55.6558C55.1658 55.5933 55.6147 55.1045 55.6147 54.5112L55.614 51.8145L57.9497 53.1631C58.1267 53.2656 58.3242 53.3174 58.5244 53.3174C58.9329 53.3174 59.3145 53.1021 59.5225 52.7417L59.5793 52.6299C59.8137 52.0991 59.615 51.4658 59.1011 51.1689L56.7661 49.8208L59.1011 48.4731C59.6516 48.1553 59.8403 47.4507 59.5225 46.9004L59.4539 46.7949C59.1111 46.3267 58.4636 46.1821 57.9497 46.479L55.614 47.8267L55.6147 45.1309C55.6147 44.4951 55.0994 43.9795 54.4634 43.9795L54.3381 43.9863Z" fill="#9A009B" fill-opacity="1.000000" fill-rule="evenodd"/>
	<path id="Shape" d="M32.6343 0C36.4087 0 39.9595 1.47021 42.6309 4.13867C45.2095 6.71973 46.6697 10.1196 46.7673 13.7485L46.7725 14.1382L46.772 19.5322L46.9016 19.5376C48.446 19.624 49.6982 20.8223 49.8694 22.3433L49.8843 22.52L49.8892 22.6992L49.8892 24.9639C49.8892 25.5996 49.3738 26.1152 48.7378 26.1152C48.1443 26.1152 47.6558 25.666 47.5933 25.0889L47.5864 24.9639L47.5864 22.6992C47.5864 22.2598 47.2559 21.8955 46.8303 21.8418L46.7222 21.835L18.5464 21.835C18.1067 21.835 17.7422 22.1655 17.6887 22.5913L17.6821 22.6992L17.6819 38.3086L28.135 38.3086L28.614 34.0552L28.5164 33.8882C28.1758 33.2671 27.9827 32.5859 27.946 31.8813L27.9397 31.6162L27.9482 31.3491C28.0891 28.9863 29.9753 27.0947 32.3362 26.9487C33.6467 26.8677 34.8958 27.3169 35.8489 28.2124C36.7893 29.0962 37.3286 30.3428 37.3286 31.6333C37.3286 32.4277 37.1296 33.2017 36.7502 33.8911L36.6541 34.0552L37.1321 38.3086L47.5859 38.3086L47.5864 29.4033C47.5864 28.8525 47.9736 28.3916 48.491 28.2783L48.6123 28.2588L48.7378 28.252C49.3313 28.252 49.8201 28.7012 49.8826 29.2778L49.8892 29.4033L49.8889 38.3086L61.0461 38.3086C63.2334 38.3086 65.0374 39.98 65.248 42.1128L65.2634 42.3208L65.2686 42.5312L65.2686 56.0405C65.2686 58.2983 63.4875 60.1479 61.2566 60.2578L61.0461 60.2632L15.2444 60.2632C14.6086 60.2632 14.093 59.7476 14.093 59.1118C14.093 58.5181 14.542 58.0293 15.1189 57.9668L15.2444 57.9604L61.0461 57.9604C62.054 57.9604 62.8833 57.1792 62.96 56.1904L62.9658 56.0405L62.9658 42.5312C62.9658 41.5229 62.1846 40.6938 61.1958 40.6172L61.0461 40.6113L4.22241 40.6113C3.21436 40.6113 2.38525 41.3926 2.30859 42.3813L2.30273 42.5312L2.30273 56.0405C2.30273 57.0483 3.08398 57.8779 4.07251 57.9546L4.22241 57.9604L10.8047 57.9604C11.4404 57.9604 11.9561 58.4756 11.9561 59.1118C11.9561 59.7051 11.5071 60.1938 10.9302 60.2563L10.8047 60.2632L4.22241 60.2632C1.9646 60.2632 0.115234 58.4819 0.00512695 56.251L0 56.0405L0 42.5312C0 40.2734 1.78101 38.4238 4.01196 38.314L4.22241 38.3086L15.3789 38.3086L15.3794 22.6992C15.3794 21.0732 16.6108 19.73 18.1902 19.5522L18.3669 19.5376L18.4961 19.5322L18.4961 14.1382C18.4961 6.55176 24.5024 0.341797 32.0098 0.0136719L32.3232 0.00341797L32.6343 0ZM32.6343 2.30273C26.2087 2.30273 20.9624 7.4502 20.8025 13.8379L20.7988 14.1382L20.7981 19.5322L24.729 19.5322L24.7295 14.1382C24.7295 9.86182 28.1428 6.36768 32.3884 6.2373L32.6343 6.2334C34.7441 6.2334 36.7295 7.05518 38.2227 8.54688C39.6416 9.9668 40.4551 11.8306 40.533 13.8228L40.5391 14.1382L40.5391 19.5322L44.469 19.5322L44.4697 14.1382C44.4697 11.0947 43.3281 8.22607 41.2468 6.01855L41.0024 5.76709C38.7661 3.53271 35.7947 2.30273 32.6343 2.30273ZM27.0364 13.9185C27.1521 10.9312 29.6189 8.53613 32.6343 8.53613C34.1304 8.53613 35.5366 9.11816 36.5945 10.1748L36.7874 10.3774C37.7241 11.4111 38.2363 12.7354 38.2363 14.1382L38.2361 19.5312L27.032 19.5312L27.0322 14.1382L27.0364 13.9185ZM32.3191 29.2627L32.4714 29.2476L32.679 29.2427C33.2756 29.2539 33.8347 29.4795 34.272 29.8906C34.7585 30.3481 35.0259 30.9658 35.0259 31.6333C35.0259 32.0942 34.895 32.54 34.6472 32.9238L34.564 33.0664C34.3843 33.4062 34.3088 33.7935 34.3503 34.1777L34.8149 38.3086L30.4529 38.3086L30.9182 34.1743L30.929 34.0103C30.937 33.627 30.8298 33.2466 30.6213 32.9253L30.5249 32.7617C30.3162 32.3726 30.2202 31.9355 30.2471 31.4863C30.3142 30.3589 31.2119 29.4102 32.3191 29.2627Z" clip-rule="evenodd" fill="#9A009B" fill-opacity="1.000000" fill-rule="evenodd"/>
	<path id="Path" d="M52.9617 17.2354C53.1904 17.4639 53.4905 17.5786 53.7903 17.5786C54.0903 17.5786 54.3901 17.4639 54.6189 17.2354C57.2373 14.6167 61.4792 13.417 64.5764 13.167C65.2214 13.1147 65.7021 12.5493 65.6501 11.9048C65.5981 11.2593 65.0339 10.7808 64.3879 10.8306C60.8755 11.1143 56.0293 12.5103 52.9617 15.5781C52.5039 16.0356 52.5039 16.7773 52.9617 17.2354Z" fill="#980099" fill-opacity="1.000000" fill-rule="evenodd"/>
	<path id="Path Copy" d="M51.6567 10.4224C51.9187 10.6128 52.2327 10.6787 52.5291 10.6318C52.8252 10.585 53.1035 10.4248 53.2937 10.1631C55.4702 7.16748 57.7805 5.9248 60.8005 5.19336C61.4294 5.04102 61.8159 4.40771 61.6636 3.77881C61.5112 3.1499 60.8792 2.76514 60.2488 2.91553C56.824 3.74512 53.9478 5.27588 51.3977 8.78564C51.0171 9.30908 51.1333 10.042 51.6567 10.4224Z" fill="#980099" fill-opacity="1.000000" fill-rule="evenodd"/>
	<path id="Path" d="M69.3315 11.0566C69.2983 11.0474 69.2646 11.0386 69.2305 11.0303C68.6025 10.8735 67.9666 11.2563 67.8101 11.8843C67.6538 12.5122 68.0361 13.1484 68.6643 13.3047L68.7241 13.3198C68.8257 13.3472 68.928 13.3604 69.0286 13.3604C69.5459 13.3604 70.0193 13.0151 70.1597 12.4922C70.3274 11.8667 69.9565 11.2241 69.3315 11.0566Z" fill="#980099" fill-opacity="1.000000" fill-rule="evenodd"/>
</svg>
