<svg width="2980.000000" height="1940.000000" viewBox="0 0 2980 1940" fill="none" xmlns="http://www.w3.org/2000/svg" xmlns:xlink="http://www.w3.org/1999/xlink">
	<desc>
			Created with Pixso.
	</desc>
	<defs/>
	<g opacity="0.500000">
		<mask id="mask_1_138" fill="white">
			<path id="bg_ovals" d="M2910.69 1940C2955.71 1797.99 2980 1646.8 2980 1490C2980 667.842 2312.16 0 1490 0C667.842 0 0 667.842 0 1490C0 1646.8 24.2915 1797.99 69.313 1940C260.353 1337.39 824.643 900 1490 900C2155.36 900 2719.65 1337.39 2910.69 1940Z" clip-rule="evenodd" fill="" fill-opacity="1.000000" fill-rule="evenodd"/>
		</mask>
		<path id="bg_ovals" d="M2910.69 1940C2955.71 1797.99 2980 1646.8 2980 1490C2980 667.842 2312.16 0 1490 0C667.842 0 0 667.842 0 1490C0 1646.8 24.2915 1797.99 69.313 1940C260.353 1337.39 824.643 900 1490 900C2155.36 900 2719.65 1337.39 2910.69 1940Z" clip-rule="evenodd" fill="#EEE1FA" fill-opacity="1.000000" fill-rule="evenodd" mask="url(#mask_1_138)"/>
		<path id="bg_ovals" d="" clip-rule="evenodd" fill="#979797" fill-opacity="0.000000" fill-rule="evenodd"/>
	</g>
</svg>
