<svg width="39.698730" height="31.789551" viewBox="0 0 39.6987 31.7896" fill="none" xmlns="http://www.w3.org/2000/svg" xmlns:xlink="http://www.w3.org/1999/xlink">
	<desc>
			Created with Pixso.
	</desc>
	<defs/>
	<path id="Path" d="M13.2861 16.6025L7.93506 17.937C7.45264 18.0571 7.15869 18.5464 7.27881 19.0288C7.39941 19.5117 7.88818 19.8057 8.37109 19.6851L13.7222 18.3511C14.2051 18.2305 14.4985 17.7417 14.3784 17.2588C14.2578 16.7764 13.769 16.4824 13.2861 16.6025Z" fill="#950097" fill-opacity="1.000000" fill-rule="evenodd"/>
	<path id="Path" d="M22.2583 14.3652L16.9072 15.6997C16.4248 15.8198 16.1309 16.3091 16.251 16.7915C16.3716 17.2744 16.8604 17.5684 17.3433 17.4478L22.6943 16.1138C23.1772 15.9932 23.4707 15.5044 23.3506 15.0215C23.23 14.5391 22.7412 14.2451 22.2583 14.3652Z" fill="#950097" fill-opacity="1.000000" fill-rule="evenodd"/>
	<path id="Path" d="M31.3545 12.0972L26.0034 13.4316C25.521 13.5518 25.2271 14.041 25.3472 14.5234C25.4678 15.0063 25.9565 15.3003 26.4395 15.1797L31.7905 13.8457C32.2734 13.7251 32.5669 13.2363 32.4468 12.7534C32.3262 12.271 31.8374 11.9771 31.3545 12.0972Z" fill="#950097" fill-opacity="1.000000" fill-rule="evenodd"/>
	<path id="Shape" d="M30.3794 15.5439C29.8091 15.686 29.3066 15.9614 28.896 16.3281C28.3608 16.1973 27.7881 16.1899 27.2178 16.332C25.3379 16.8008 24.1899 18.7114 24.6587 20.5913C25.1274 22.4712 27.0381 23.6191 28.918 23.1504C29.4878 23.0083 29.9902 22.7329 30.4014 22.3662C30.936 22.4971 31.5088 22.5044 32.0791 22.3623C33.959 21.8936 35.1069 19.9829 34.6382 18.103C34.1699 16.2231 32.2593 15.0752 30.3794 15.5439ZM28.4819 21.4023C28.5425 21.3872 28.6016 21.3682 28.6592 21.3472C28.2651 20.9253 27.9692 20.4014 27.8203 19.8032C27.6709 19.2046 27.6865 18.603 27.8364 18.0459C27.7754 18.0542 27.7144 18.0654 27.6538 18.0806C26.7378 18.3091 26.1787 19.2397 26.4067 20.1553C26.6353 21.0713 27.5659 21.6304 28.4819 21.4023ZM31.4609 20.6484C31.5215 20.6401 31.5825 20.6289 31.6436 20.6138C32.5591 20.3857 33.1187 19.4546 32.8901 18.5391C32.6616 17.623 31.731 17.064 30.8154 17.2925C30.7544 17.3076 30.6953 17.3262 30.6377 17.3477C31.0317 17.769 31.3276 18.293 31.4771 18.8916C31.626 19.4897 31.6108 20.0913 31.4609 20.6484ZM29.7749 19.855C29.6836 19.7075 29.6128 19.5444 29.5684 19.3672C29.5244 19.1899 29.5103 19.0127 29.522 18.8394C29.6138 18.9868 29.6846 19.1499 29.7285 19.3271C29.7729 19.5044 29.7866 19.6816 29.7749 19.855Z" clip-rule="evenodd" fill="#950097" fill-opacity="1.000000" fill-rule="evenodd"/>
	<path id="Shape" d="M5.97217 10.2148L12.2661 8.64551C12.749 8.5249 13.2378 8.81885 13.3584 9.30176L14.3599 13.3188C14.48 13.8018 14.1865 14.2905 13.7036 14.4111L7.40967 15.9805C6.92725 16.1006 6.43799 15.8066 6.31787 15.3242L5.31592 11.3066C5.1958 10.8242 5.48975 10.335 5.97217 10.2148ZM7.84814 14.0142L12.3936 12.8809L11.8276 10.6118L7.28223 11.7451L7.84814 14.0142Z" clip-rule="evenodd" fill="#950097" fill-opacity="1.000000" fill-rule="evenodd"/>
	<path id="Shape" d="M12.3354 5.37109L31.2559 0.653809C32.7021 0.293457 34.1719 1.17627 34.5322 2.62256L39.0449 20.7202C39.4053 22.1665 38.522 23.6362 37.0762 23.9966L24.0596 27.2422C24.542 27.1216 24.8359 26.6328 24.7158 26.1499C24.5952 25.6675 24.1064 25.3735 23.6235 25.4937L36.6401 22.2485C37.1221 22.1284 37.4165 21.6382 37.2964 21.1562L32.7842 3.05811C32.6641 2.57617 32.1738 2.28174 31.6919 2.40186L3.05859 9.54102C2.57617 9.66162 2.28223 10.1514 2.40234 10.6333L6.91455 28.7314C7.03467 29.2134 7.52441 29.5078 8.00635 29.3877L20.4878 26.2754C20.0049 26.396 19.7114 26.8848 19.8315 27.3677C19.9521 27.8506 20.4409 28.144 20.9238 28.0239L8.44238 31.1357C6.99658 31.4961 5.52686 30.6133 5.16602 29.167L0.544434 10.6299C0.243652 9.42432 0.977539 8.20312 2.18311 7.90234L4.00586 7.44775L13.8545 4.99268L12.3354 5.37109Z" clip-rule="evenodd" fill="#950097" fill-opacity="1.000000" fill-rule="evenodd"/>
</svg>
