<svg width="30.000000" height="30.000000" viewBox="0 0 30 30" fill="none" xmlns="http://www.w3.org/2000/svg" xmlns:xlink="http://www.w3.org/1999/xlink">
	<desc>
			Created with Pixso.
	</desc>
	<defs/>
	<path id="Path" d="M26.7573 0L22.5586 0C22.0732 0 21.6797 0.393555 21.6797 0.878906C21.6797 1.36426 22.0732 1.75781 22.5586 1.75781L26.7573 1.75781C27.5762 1.75781 28.2422 2.42383 28.2422 3.24268L28.2422 7.44141C28.2422 7.92676 28.6357 8.32031 29.1211 8.32031C29.6064 8.32031 30 7.92676 30 7.44141L30 3.24268C30 1.45459 28.5454 0 26.7573 0Z" fill="#9A009B" fill-opacity="1.000000" fill-rule="evenodd"/>
	<path id="Path" d="M0.878906 8.32031C1.36426 8.32031 1.75781 7.92676 1.75781 7.44141L1.75781 3.24268C1.75781 2.42383 2.42383 1.75781 3.24268 1.75781L7.44141 1.75781C7.92676 1.75781 8.32031 1.36426 8.32031 0.878906C8.32031 0.393555 7.92676 0 7.44141 0L3.24268 0C1.45459 0 0 1.45459 0 3.24268L0 7.44141C0 7.92676 0.393555 8.32031 0.878906 8.32031Z" fill="#9A009B" fill-opacity="1.000000" fill-rule="evenodd"/>
	<path id="Path" d="M7.44141 28.2422L3.24268 28.2422C2.42383 28.2422 1.75781 27.5762 1.75781 26.7573L1.75781 22.5586C1.75781 22.0732 1.36426 21.6797 0.878906 21.6797C0.393555 21.6797 0 22.0732 0 22.5586L0 26.7573C0 28.5454 1.45459 30 3.24268 30L7.44141 30C7.92676 30 8.32031 29.6064 8.32031 29.1211C8.32031 28.6357 7.92676 28.2422 7.44141 28.2422Z" fill="#9A009B" fill-opacity="1.000000" fill-rule="evenodd"/>
	<path id="Path" d="M29.1211 21.6797C28.6357 21.6797 28.2422 22.0732 28.2422 22.5586L28.2422 26.7573C28.2422 27.5762 27.5762 28.2422 26.7573 28.2422L22.5586 28.2422C22.0732 28.2422 21.6797 28.6357 21.6797 29.1211C21.6797 29.6064 22.0732 30 22.5586 30L26.7573 30C28.5454 30 30 28.5454 30 26.7573L30 22.5586C30 22.0732 29.6064 21.6797 29.1211 21.6797Z" fill="#9A009B" fill-opacity="1.000000" fill-rule="evenodd"/>
	<path id="Path" d="M24.5322 5.85645C18.4316 1.33154 11.8569 1.21631 5.57715 5.77637C5.18457 6.06152 5.09766 6.61133 5.38281 7.00391C5.66797 7.39697 6.21729 7.48389 6.61035 7.19873C12.2847 3.07812 18.0195 3.21436 23.4849 7.26855C23.8745 7.55762 24.4253 7.47607 24.7144 7.08594C25.0034 6.69629 24.9219 6.146 24.5322 5.85645Z" fill="#9A009B" fill-opacity="1.000000" fill-rule="evenodd"/>
	<path id="Path" d="M15 6.15234C11.2661 6.15234 6.46631 8.63818 4.42529 11.7002C4.15576 12.104 4.26514 12.6494 4.66895 12.9189C5.07275 13.188 5.61865 13.0791 5.8877 12.6748C7.57959 10.1367 11.8379 7.91016 15 7.91016C18.0967 7.91016 22.3315 9.56201 24.0806 12.6235C24.2432 12.9077 24.5396 13.0664 24.8447 13.0664C25.5078 13.0664 25.9453 12.3433 25.6069 11.7515C23.5918 8.2251 18.8604 6.15234 15 6.15234L15 6.15234Z" fill="#9A009B" fill-opacity="1.000000" fill-rule="evenodd"/>
	<path id="Path" d="M10.2539 20.625C10.2539 17.7495 12.3828 15.4102 15 15.4102C17.6172 15.4102 19.7461 17.7495 19.7461 20.625L19.7461 21.5625C19.7461 22.0479 20.1396 22.4414 20.625 22.4414C21.1104 22.4414 21.5039 22.0479 21.5039 21.5625L21.5039 20.625C21.5039 16.7803 18.5864 13.6523 15 13.6523C11.4136 13.6523 8.49609 16.7803 8.49609 20.625C8.49609 24.3623 11.3062 26.3643 12.5464 28.1567C12.7173 28.4028 12.9912 28.5352 13.27 28.5352C13.9697 28.5352 14.3979 27.7427 13.9917 27.1558C12.6494 25.2163 10.2539 23.6084 10.2539 20.625Z" fill="#9A009B" fill-opacity="1.000000" fill-rule="evenodd"/>
	<path id="Path" d="M24.6924 23.8306C27.4087 18.3979 22.5781 9.90234 15 9.90234C9.66455 9.90234 4.74609 14.4243 4.74609 20.1562C4.74609 22.2373 5.01318 23.9971 6.31592 25.8232C6.59766 26.2183 7.14648 26.3101 7.54199 26.0278C7.93701 25.7461 8.02881 25.1973 7.74658 24.8018C6.8291 23.5161 6.50391 22.3003 6.50391 20.1562C6.50391 15.6304 10.4741 11.6602 15 11.6602C17.2783 11.6602 19.5288 12.665 21.1738 14.4175C23.5024 16.8979 24.3389 20.6064 23.1201 23.0444C21.8511 25.582 17.7539 24.8628 17.7539 21.5625C17.7539 15.0444 11.0767 16.9937 12.2725 21.7759C12.3901 22.2466 12.8672 22.5327 13.3379 22.415C13.8091 22.2974 14.0952 21.8203 13.9775 21.3491C13.6704 20.1211 14.2339 19.1602 15 19.1602C15.688 19.1602 15.9961 20.3667 15.9961 21.5625C15.9961 26.709 22.5889 28.0381 24.6924 23.8306L24.6924 23.8306Z" fill="#9A009B" fill-opacity="1.000000" fill-rule="evenodd"/>
</svg>
