<svg width="26.478027" height="32.217285" viewBox="0 0 26.478 32.2173" fill="none" xmlns="http://www.w3.org/2000/svg" xmlns:xlink="http://www.w3.org/1999/xlink">
	<desc>
			Created with Pixso.
	</desc>
	<defs>
		<filter id="filter_1_188_dd" x="5635.500000" y="6449.500000" width="0.000000" height="0.000000" filterUnits="userSpaceOnUse" color-interpolation-filters="sRGB">
			<feFlood flood-opacity="0" result="BackgroundImageFix"/>
			<feBlend mode="normal" in="SourceGraphic" in2="BackgroundImageFix" result="shape"/>
			<feColorMatrix in="SourceAlpha" type="matrix" values="0 0 0 0 0 0 0 0 0 0 0 0 0 0 0 0 0 0 127 0" result="hardAlpha"/>
			<feOffset dx="0" dy="2"/>
			<feGaussianBlur stdDeviation="0.333333"/>
			<feComposite in2="hardAlpha" operator="arithmetic" k2="-1" k3="1"/>
			<feColorMatrix type="matrix" values="0 0 0 0 0.082353 0 0 0 0 0.066667 0 0 0 0 0.15294 0 0 0 0.051 0"/>
			<feBlend mode="normal" in2="shape" result="effect_innerShadow_1"/>
			<feColorMatrix in="SourceAlpha" type="matrix" values="0 0 0 0 0 0 0 0 0 0 0 0 0 0 0 0 0 0 127 0" result="hardAlpha"/>
			<feOffset dx="-1" dy="-2"/>
			<feGaussianBlur stdDeviation="0"/>
			<feComposite in2="hardAlpha" operator="arithmetic" k2="-1" k3="1"/>
			<feColorMatrix type="matrix" values="0 0 0 0 1 0 0 0 0 1 0 0 0 0 1 0 0 0 0.25 0"/>
			<feBlend mode="normal" in2="effect_innerShadow_1" result="effect_innerShadow_2"/>
		</filter>
		<linearGradient id="paint_linear_1_188_0" x1="13.239130" y1="32.217392" x2="13.239130" y2="0.000000" gradientUnits="userSpaceOnUse">
			<stop stop-color="#FFFFFF" stop-opacity="0.501961"/>
			<stop offset="1.000000" stop-color="#000000" stop-opacity="0.501961"/>
		</linearGradient>
	</defs>
	<path id="Combined Shape" d="M16.5698 14.9292L16.5698 17.0708L23.7729 24.4087C23.8672 24.5044 23.9526 24.606 24.0293 24.7139L24.0298 24.7139C24.1431 24.873 24.2373 25.0459 24.3125 25.2319C24.3701 25.374 24.4146 25.519 24.4453 25.667L24.4453 25.667C24.4819 25.8403 24.5 26.0176 24.5 26.1982L24.5 26.9756C24.5 27.1646 24.48 27.3491 24.4404 27.5298C24.4097 27.6714 24.3662 27.8105 24.3105 27.9473C24.2446 28.1079 24.1646 28.2588 24.0698 28.4004L24.0698 28.4004C23.9873 28.5239 23.8936 28.6396 23.7891 28.748C23.6602 28.8818 23.5205 28.998 23.3691 29.0977L23.3691 29.0977C23.2539 29.1738 23.1318 29.2397 23.0034 29.2964C22.8521 29.3628 22.6968 29.4126 22.5386 29.4468L22.5386 29.4468C22.3726 29.4824 22.2031 29.5 22.0293 29.5L4.9707 29.5C4.79688 29.5 4.62744 29.4824 4.46143 29.4468C4.30322 29.4126 4.14844 29.3628 3.99658 29.2964C3.86816 29.2397 3.74609 29.1738 3.63086 29.0977L3.63086 29.0977L3.63086 29.0977C3.47949 28.998 3.33984 28.8818 3.21094 28.748C3.10645 28.6396 3.0127 28.5239 2.93018 28.4004L2.93018 28.4004C2.83545 28.2588 2.75537 28.1079 2.68945 27.9473C2.63379 27.8105 2.59033 27.6714 2.55957 27.5298L2.55957 27.5298C2.52002 27.3491 2.5 27.1646 2.5 26.9756L2.5 26.1602C2.5 25.9917 2.51611 25.8262 2.54785 25.6636L2.54785 25.6636C2.57568 25.521 2.61572 25.3809 2.66846 25.2437C2.73096 25.0781 2.80908 24.9229 2.90234 24.7773L2.90234 24.7773C2.97705 24.6606 3.06152 24.5503 3.15576 24.4463L9.79346 17.0947L9.79346 14.9053L3.15576 7.55371C3.06152 7.44971 2.97705 7.33936 2.90234 7.22266L2.90234 7.22266C2.80908 7.07715 2.73096 6.92188 2.66846 6.75635C2.61572 6.61865 2.57568 6.479 2.54785 6.33643C2.51611 6.17383 2.5 6.0083 2.5 5.83984L2.5 5.02441C2.5 4.83545 2.52002 4.65088 2.55957 4.47021L2.55957 4.47021C2.59033 4.32861 2.63379 4.18945 2.68945 4.05273C2.75537 3.89209 2.83545 3.74121 2.93018 3.59961L2.93018 3.59961C3.0127 3.47607 3.10645 3.36035 3.21094 3.25195C3.33984 3.11816 3.47949 3.00195 3.63086 2.90234L3.63086 2.90234C3.74609 2.82617 3.86816 2.76025 3.99658 2.70361C4.14844 2.63721 4.30322 2.5874 4.46143 2.55322L4.46143 2.55322C4.62744 2.51758 4.79688 2.5 4.9707 2.5L22.0293 2.5C22.2031 2.5 22.3726 2.51758 22.5386 2.55322L22.5386 2.55322L22.5386 2.55322C22.6968 2.5874 22.8516 2.63721 23.0034 2.70361C23.1318 2.76025 23.2539 2.82617 23.3691 2.90234L23.3691 2.90234L23.3691 2.90234C23.5205 3.00195 23.6602 3.11816 23.7891 3.25195C23.8936 3.36035 23.9873 3.47607 24.0698 3.59961L24.0698 3.59961L24.0698 3.59961L24.0698 3.59961C24.1646 3.74121 24.2446 3.89209 24.3105 4.05273C24.3662 4.18945 24.4092 4.32861 24.4404 4.47021L24.4404 4.47021L24.4404 4.4707C24.48 4.65088 24.5 4.83545 24.5 5.02441L24.5 5.80176C24.5 5.98242 24.4819 6.15967 24.4453 6.33301L24.4453 6.33398C24.4141 6.48145 24.3701 6.62598 24.3125 6.76807C24.2373 6.9541 24.1431 7.12695 24.0298 7.28613L24.0298 7.28613L24.0298 7.28613C23.9526 7.39404 23.8672 7.49561 23.7729 7.59131L16.5698 14.9292ZM14.5698 14.5205L14.5698 17.4795C14.5698 17.7891 14.7041 18.062 14.9189 18.2441L20.2817 23.707L8.10107 21.9536L11.5356 18.1499C11.5771 18.104 11.6138 18.0547 11.6455 18.0029C11.6772 17.9512 11.7046 17.8965 11.7266 17.8384C11.749 17.7808 11.7656 17.7222 11.7769 17.6621C11.7876 17.6025 11.7935 17.5415 11.7935 17.4795L11.7935 17.1162L11.7935 15.8213L11.7935 15.8203L11.7935 14.5205C11.7935 14.4585 11.7876 14.3975 11.7769 14.3379C11.7656 14.2778 11.749 14.2192 11.7266 14.1616C11.7046 14.1035 11.6772 14.0488 11.6455 13.9971L11.6455 13.9971C11.6138 13.9453 11.5771 13.896 11.5356 13.8501L4.63867 6.21191C4.60254 6.17139 4.57324 6.12793 4.55127 6.08105L4.55127 6.08105C4.51709 6.00879 4.5 5.92822 4.5 5.83984L4.5 5.02441C4.5 4.93408 4.51758 4.85254 4.55273 4.7793L4.55273 4.7793C4.57715 4.729 4.60938 4.68262 4.65039 4.64062C4.70361 4.58496 4.76318 4.5459 4.82812 4.52344C4.87305 4.50781 4.92041 4.5 4.9707 4.5L22.0293 4.5C22.0796 4.5 22.127 4.50781 22.1719 4.52344C22.2368 4.5459 22.2964 4.58496 22.3496 4.64062C22.3906 4.68262 22.4229 4.729 22.4473 4.7793C22.4824 4.85254 22.5 4.93408 22.5 5.02441L22.5 5.80176C22.5 5.89404 22.4819 5.97754 22.4453 6.05176L22.4448 6.05176C22.4204 6.10205 22.3872 6.14844 22.3457 6.19043L14.856 13.8198C14.8101 13.8667 14.7695 13.917 14.7344 13.9707C14.6987 14.0244 14.6689 14.0815 14.644 14.1421C14.6191 14.2026 14.6006 14.2646 14.5884 14.3276L14.5884 14.3276C14.5757 14.3906 14.5698 14.4551 14.5698 14.5205ZM6.48633 23.7417L22.481 26.0444C22.4937 26.0928 22.5 26.144 22.5 26.1982L22.5 26.9756C22.5 27.0659 22.4824 27.1475 22.4473 27.2207C22.4229 27.271 22.3906 27.3174 22.3496 27.3594C22.2964 27.415 22.2368 27.4541 22.1719 27.4766C22.127 27.4922 22.0796 27.5 22.0293 27.5L4.9707 27.5C4.92041 27.5 4.87305 27.4922 4.82812 27.4766C4.76318 27.4541 4.70361 27.415 4.65039 27.3594C4.60938 27.3174 4.57715 27.271 4.55273 27.2207C4.51758 27.1475 4.5 27.0659 4.5 26.9756L4.5 26.1602C4.5 26.0718 4.51709 25.9912 4.55127 25.9189C4.57324 25.8721 4.60254 25.8286 4.63867 25.7881L6.48633 23.7417Z" clip-rule="evenodd" fill="#9F00A0" fill-opacity="1.000000" fill-rule="evenodd"/>
</svg>
