<svg width="24.000000" height="23.000000" viewBox="0 0 24 23" fill="none" xmlns="http://www.w3.org/2000/svg" xmlns:xlink="http://www.w3.org/1999/xlink">
	<desc>
			Created with Pixso.
	</desc>
	<defs/>
	<path id="Combined Shape" d="M7 0C7.5127 0 7.93555 0.385986 7.99316 0.883301L8 1L8 2L16 2L16 1C16 0.447754 16.4478 0 17 0C17.5127 0 17.9355 0.385986 17.9932 0.883301L18 1L18 2L20 2C22.209 2 24 3.79077 24 6L24 19C24 21.2092 22.209 23 20 23L4 23C1.79102 23 0 21.2092 0 19L0 6C0 3.79077 1.79102 2 4 2L6 2L6 1C6 0.447754 6.44775 0 7 0ZM16 4L16 5L16.0068 5.1167C16.0645 5.61401 16.4873 6 17 6C17.5522 6 18 5.55225 18 5L18 4L20 4C21.1045 4 22 4.89551 22 6L22 8L2 8L2 6C2 4.89551 2.89551 4 4 4L6 4L6 5L6.00684 5.1167C6.06445 5.61401 6.4873 6 7 6C7.55225 6 8 5.55225 8 5L8 4L16 4ZM2 10L22 10L22 19C22 20.1045 21.1045 21 20 21L4 21C2.89551 21 2 20.1045 2 19L2 10Z" clip-rule="evenodd" fill="#9A009B" fill-opacity="1.000000" fill-rule="evenodd"/>
</svg>
