<svg width="29.000000" height="38.000000" viewBox="0 0 29 38" fill="none" xmlns="http://www.w3.org/2000/svg" xmlns:xlink="http://www.w3.org/1999/xlink">
	<desc>
			Created with Pixso.
	</desc>
	<defs/>
	<path id="Combined Shape" d="M3 0L18.1714 0C18.9673 0 19.7305 0.315918 20.293 0.878906L28.1211 8.70703C28.6841 9.26953 29 10.0327 29 10.8286L29 35C29 36.6567 27.6567 38 26 38L3 38C1.34326 38 0 36.6567 0 35L0 3C0 1.34326 1.34326 0 3 0ZM18.9941 2.4082L18.9941 8.98047C18.9941 9.49365 19.3799 9.91602 19.8774 9.97412L19.9941 9.98047L26.5664 9.98047L18.9941 2.4082ZM16.9941 2L16.9941 8.98047L16.999 9.15674C17.0903 10.7319 18.3965 11.9805 19.9941 11.9805L27 11.9805L27 35C27 35.5522 26.5522 36 26 36L3 36C2.44775 36 2 35.5522 2 35L2 3C2 2.44775 2.44775 2 3 2L16.9941 2ZM15.5 15C16.0522 15 16.5 15.4478 16.5 16C16.5 16.5127 16.1138 16.9355 15.6167 16.9932L15.5 17L7 17C6.44775 17 6 16.5522 6 16C6 15.4873 6.38623 15.0645 6.8833 15.0068L7 15L15.5 15ZM22 20C22.5522 20 23 20.4478 23 21C23 21.5127 22.6138 21.9355 22.1167 21.9932L22 22L7 22C6.44775 22 6 21.5522 6 21C6 20.4873 6.38623 20.0645 6.8833 20.0068L7 20L22 20ZM23 26C23 25.4478 22.5522 25 22 25L7 25L6.8833 25.0068C6.38623 25.0645 6 25.4873 6 26C6 26.5522 6.44775 27 7 27L22 27L22.1167 26.9932C22.6138 26.9355 23 26.5127 23 26Z" clip-rule="evenodd" fill="#9A009B" fill-opacity="1.000000" fill-rule="evenodd"/>
</svg>
