<svg width="29.000000" height="38.000000" viewBox="0 0 29 38" fill="none" xmlns="http://www.w3.org/2000/svg" xmlns:xlink="http://www.w3.org/1999/xlink">
	<desc>
			Created with Pixso.
	</desc>
	<defs/>
	<path id="Combined Shape" d="M3 0L18.1714 0C18.9673 0 19.7305 0.315918 20.293 0.878906L28.1211 8.70703C28.6841 9.26953 29 10.0327 29 10.8286L29 35C29 36.6567 27.6567 38 26 38L3 38C1.34326 38 0 36.6567 0 35L0 3C0 1.34326 1.34326 0 3 0ZM16.9941 8.98047L16.9941 2L3 2C2.44775 2 2 2.44775 2 3L2 35C2 35.5522 2.44775 36 3 36L26 36C26.5522 36 27 35.5522 27 35L27 11.9805L19.9941 11.9805C18.3965 11.9805 17.0903 10.7319 16.999 9.15674L16.9941 8.98047ZM18.9941 8.98047L18.9941 2.4082L26.5664 9.98047L19.9941 9.98047L19.8774 9.97412C19.3799 9.91602 18.9941 9.49365 18.9941 8.98047ZM22.2549 15.356C21.8394 14.9922 21.2075 15.0342 20.8438 15.4497L12.4512 25.0361L8.42969 21.0156L8.33545 20.9326C7.94336 20.6274 7.37598 20.6553 7.01562 21.0156C6.625 21.4062 6.625 22.0396 7.01562 22.4297L12.5483 27.9629L22.3486 16.7671L22.4253 16.6675C22.7036 16.2559 22.6382 15.6919 22.2549 15.356Z" clip-rule="evenodd" fill="#9A009B" fill-opacity="1.000000" fill-rule="evenodd"/>
</svg>
