<svg width="30.000000" height="37.714355" viewBox="0 0 30 37.7144" fill="none" xmlns="http://www.w3.org/2000/svg" xmlns:xlink="http://www.w3.org/1999/xlink">
	<desc>
			Created with Pixso.
	</desc>
	<defs/>
	<path id="icon_money" d="M18.063 0.494141C18.3726 0.40332 18.6782 0.317383 18.9829 0.235352C20.2466 -0.104004 21.6313 -0.0742188 23.126 0.310547C24.1953 0.586426 24.8389 1.67676 24.5635 2.74658C24.5044 2.97607 24.4048 3.19336 24.2695 3.38818L21.5239 7.3418C20.7666 8.43262 20.8159 9.8916 21.646 10.9282L25.0933 15.2344C28.2695 19.2017 30 24.1323 30 29.2144L30 29.7144C30 34.1328 26.4185 37.7144 22 37.7144L8 37.7144C3.58154 37.7144 0 34.1328 0 29.7144L0 29.2144C0 24.1323 1.73047 19.2017 4.90674 15.2344L8.27881 11.022C8.53662 10.7002 8.71875 10.3379 8.8252 9.95898C8.80664 9.88232 8.79688 9.80273 8.79688 9.7207C8.79688 9.53467 8.84766 9.36035 8.93604 9.21094C8.94971 8.59033 8.77051 7.96484 8.39648 7.4292C6.50293 4.71826 5.71777 2.78516 6.1792 1.39893C6.53711 0.322266 7.42676 -0.0844727 8.43701 0.233398C8.73438 0.327148 9.03564 0.473633 9.41211 0.692383L10.5493 1.38135C11.3867 1.87109 11.9546 2.09033 12.4575 2.09033C12.7935 2.09033 13.2568 2.00049 13.9473 1.80029L14.3892 1.66699C14.5732 1.60986 16.0483 1.12402 17.0176 0.814941L18.063 0.494141ZM10.6831 10.7207C10.5005 11.2725 10.2192 11.7983 9.84033 12.272L6.46777 16.4844C3.57568 20.0972 2 24.5869 2 29.2144L2 29.7144C2 33.0278 4.68652 35.7144 8 35.7144L22 35.7144C25.3135 35.7144 28 33.0278 28 29.7144L28 29.2144C28 24.5869 26.4243 20.0972 23.5322 16.4844L20.0845 12.1777C19.7275 11.7314 19.4565 11.2383 19.2739 10.7207L10.6831 10.7207ZM18.999 8.7207L10.9189 8.7207C10.8457 7.86572 10.5527 7.02344 10.0361 6.28369L9.86279 6.0332C8.62207 4.2168 8.04395 2.9126 8.04443 2.26025L8.0459 2.22705L8.07227 2.24023C8.13574 2.271 8.20605 2.30811 8.28467 2.35156L8.71729 2.60791C8.98047 2.76807 9.29785 2.96387 9.29785 2.96387C10.5508 3.72266 11.4385 4.09033 12.4575 4.09033C13.0654 4.09033 13.7368 3.95312 14.7109 3.66016L14.9844 3.57666C15.2354 3.49854 17.4243 2.77637 18.1758 2.54785C18.6294 2.41016 19.0664 2.28418 19.502 2.16699C20.3306 1.94434 21.2632 1.94238 22.3096 2.17188L22.6265 2.24756L19.8809 6.20117C19.3506 6.96533 19.0576 7.83789 18.999 8.7207ZM15.6421 31.208L15.6421 29.8301C17.7783 29.5601 19.2212 28.2388 19.2212 26.1782C19.2212 23.5269 16.9912 22.9893 15.0913 22.5469C13.6753 22.2026 12.4414 21.917 12.4414 20.8101C12.4414 19.8359 13.4438 19.2969 14.6436 19.2969C15.9097 19.2969 16.8994 19.98 16.8994 21.2368L18.874 21.2368C18.874 19.1582 17.6616 17.772 15.5366 17.4873L15.5366 16.1968L13.8687 16.1968L13.8687 17.48C11.7646 17.7285 10.4487 18.9575 10.4487 20.8975C10.4487 23.4663 12.6089 23.9683 14.478 24.3926C15.9307 24.7241 17.2002 25.0093 17.2002 26.2017C17.2002 27.2832 16.0898 27.9712 14.7979 27.9712C13.3877 27.9712 12.2642 27.2212 12.2642 25.8442L10.248 25.8442C10.248 28.0923 11.6562 29.5728 14.0122 29.8384L14.0122 31.208L15.6421 31.208Z" clip-rule="evenodd" fill="#9A009B" fill-opacity="1.000000" fill-rule="evenodd"/>
</svg>
