<svg width="35.828613" height="38.000000" viewBox="0 0 35.8286 38" fill="none" xmlns="http://www.w3.org/2000/svg" xmlns:xlink="http://www.w3.org/1999/xlink">
	<desc>
			Created with Pixso.
	</desc>
	<defs/>
	<path id="Combined Shape" d="M17.9141 0C15.7051 0 13.9141 1.79102 13.9141 4C13.9141 4.86963 14.1919 5.67432 14.6631 6.33057C7.38525 7.83301 1.91406 14.2773 1.91406 22C1.91406 30.8364 9.07764 38 17.9141 38C26.751 38 33.9141 30.8364 33.9141 22C33.9141 14.2773 28.4429 7.83301 21.1655 6.33057C21.6367 5.67432 21.9141 4.86963 21.9141 4C21.9141 1.79102 20.1235 0 17.9141 0ZM17.9141 6C19.0186 6 19.9141 5.10449 19.9141 4C19.9141 2.89551 19.0186 2 17.9141 2C16.8096 2 15.9141 2.89551 15.9141 4C15.9141 5.10449 16.8096 6 17.9141 6ZM7.41406 4.08594L8.82861 5.5L1.41406 12.9141L0 11.5L7.41406 4.08594ZM27 5.5L28.4141 4.08594L35.8286 11.5L34.4141 12.9141L27 5.5ZM17.9141 8C10.1821 8 3.91406 14.2681 3.91406 22C3.91406 29.7319 10.1821 36 17.9141 36C25.646 36 31.9141 29.7319 31.9141 22C31.9141 14.2681 25.646 8 17.9141 8ZM17.4141 12.5C17.9272 12.5 18.3496 12.8862 18.4077 13.3833L18.4141 13.5L18.4141 21.085L24.0625 26.7339C24.4229 27.0947 24.4507 27.6616 24.1455 28.0542L24.0625 28.1484C23.7021 28.5088 23.1348 28.5366 22.7427 28.2314L22.6484 28.1484L16.4141 21.9141L16.4141 13.5C16.4141 12.9478 16.8618 12.5 17.4141 12.5Z" clip-rule="evenodd" fill="#9A009B" fill-opacity="1.000000" fill-rule="evenodd"/>
</svg>
