<?xml version="1.0" encoding="UTF-8"?>
<svg width="18px" height="11px" viewBox="0 0 18 11" version="1.1" xmlns="http://www.w3.org/2000/svg" xmlns:xlink="http://www.w3.org/1999/xlink">
    <title>path_03</title>
    <g id="Page-1" stroke="none" stroke-width="1" fill="none" fill-rule="evenodd">
        <g id="01_Home_1440.v3" transform="translate(-265.000000, -292.000000)" fill="#FF6278" fill-rule="nonzero">
            <g id="1st_screen" transform="translate(-380.000000, -22.000000)">
                <g id="text" transform="translate(515.000000, 187.000000)">
                    <g id="Group-14">
                        <path d="M145,127.5 C146.380712,127.5 147.5,128.619288 147.5,130 C147.5,134.253229 143.603875,137.5 139,137.5 C134.396125,137.5 130.5,134.253229 130.5,130 C130.5,128.619288 131.619288,127.5 133,127.5 C134.325483,127.5 135.410039,128.531536 135.494682,129.835624 L135.5,130 C135.5,131.269618 136.976458,132.5 139,132.5 C140.951273,132.5 142.393841,131.355933 142.494393,130.135826 L142.5,130 C142.5,128.619288 143.619288,127.5 145,127.5 Z" id="path_03" transform="translate(139.000000, 132.500000) rotate(2.000000) translate(-139.000000, -132.500000) "></path>
                    </g>
                </g>
            </g>
        </g>
    </g>
</svg>