<svg width="39.940918" height="39.940918" viewBox="0 0 39.9409 39.9409" fill="none" xmlns="http://www.w3.org/2000/svg" xmlns:xlink="http://www.w3.org/1999/xlink">
	<desc>
			Created with Pixso.
	</desc>
	<defs/>
	<path id="Shape" d="M5.26123 10.7993C4.47949 12.4067 4.06445 14.1821 4.06445 16.022C4.06445 19.2163 5.30811 22.2192 7.56689 24.478L13.3062 30.2178L15.1323 35.6108C15.4609 36.5811 16.2529 37.2993 17.25 37.5322C17.4756 37.585 17.7026 37.6108 17.9272 37.6108C18.6968 37.6108 19.4395 37.3081 20 36.7476L24.7578 31.9897C25.6963 32.748 26.8413 33.1274 27.9868 33.1274C29.3037 33.1274 30.6206 32.626 31.6235 31.6235C33.498 29.7485 33.6201 26.7759 31.9902 24.7578L36.7476 20C37.4722 19.2754 37.7656 18.2476 37.5322 17.25C37.2993 16.2524 36.5811 15.4609 35.6108 15.1323L30.2178 13.3062L25.915 9.00342C25.4507 8.53906 24.6968 8.53906 24.2319 9.00342C23.7671 9.46875 23.7671 10.2222 24.2319 10.6875L28.731 15.1865C28.8604 15.3159 29.0176 15.4136 29.1909 15.4722L34.8477 17.3877C35.1045 17.4746 35.1875 17.6782 35.2139 17.7915C35.2407 17.9053 35.2563 18.1245 35.0645 18.3164L18.3169 35.0635C18.125 35.2554 17.9053 35.2397 17.792 35.2134C17.6787 35.187 17.4751 35.104 17.3882 34.8467L15.71 29.8906L21.6167 23.9839C22.0815 23.519 22.0815 22.7656 21.6167 22.3003C21.1519 21.8359 20.3984 21.8359 19.9336 22.3003L14.3452 27.8887L9.25098 22.7939C7.44189 20.9854 6.4458 18.5801 6.4458 16.022C6.4458 13.4639 7.44189 11.0591 9.25098 9.25C12.2349 6.26611 16.9043 5.59277 20.6064 7.61279C21.1836 7.92773 21.9067 7.71533 22.2217 7.13818C22.5361 6.56104 22.3237 5.83789 21.7466 5.52295C18.3145 3.65039 14.2178 3.63281 10.8101 5.27148L9.62158 4.08301C8.09424 2.55615 5.61035 2.55664 4.0835 4.08301C2.55664 5.60986 2.55664 8.09424 4.08301 9.62109L5.26123 10.7993ZM7.93799 5.7666C7.33936 5.16797 6.36523 5.16797 5.76709 5.7666C5.16846 6.36523 5.16846 7.33887 5.76709 7.9375L6.55273 8.72314C6.86426 8.32031 7.20068 7.93262 7.56689 7.56689C7.93311 7.20068 8.32031 6.86328 8.72412 6.55322L7.93799 5.7666ZM30.2886 26.4595C31.0005 27.5317 30.8843 28.9956 29.9399 29.9399C28.9956 30.8848 27.5317 31.0005 26.4595 30.2886L30.2886 26.4595Z" clip-rule="evenodd" fill="#9A009B" fill-opacity="1.000000" fill-rule="evenodd"/>
	<path id="Path" d="M25.3184 18.5991C25.7832 19.0645 25.7832 19.8179 25.3184 20.2827L24.7051 20.896C24.4727 21.1284 24.168 21.2446 23.8633 21.2446C23.5586 21.2446 23.2539 21.1284 23.0215 20.8955C22.5566 20.4307 22.5566 19.6768 23.0215 19.2124L23.6348 18.5991C24.0996 18.1343 24.8535 18.1343 25.3184 18.5991L25.3184 18.5991Z" fill="#9A009B" fill-opacity="1.000000" fill-rule="evenodd"/>
	<path id="Path" d="M29.8647 0.0385742C32.3877 -0.188477 34.8306 0.595703 36.7427 2.24316C38.6543 3.89111 39.7896 6.19141 39.939 8.72021C39.9775 9.37646 39.4771 9.93994 38.8208 9.979C38.7964 9.98047 38.7729 9.98096 38.7495 9.98096C38.124 9.98096 37.5991 9.49316 37.562 8.86035C37.4512 6.97998 36.6079 5.27051 35.188 4.04736C33.7686 2.82324 31.9536 2.24219 30.0771 2.41016C29.4229 2.46777 28.8438 1.98535 28.7852 1.33057C28.7266 0.675293 29.21 0.097168 29.8647 0.0385742L29.8647 0.0385742Z" fill="#9A009B" fill-opacity="1.000000" fill-rule="evenodd"/>
	<path id="Path" d="M29.9551 4.81885C31.2783 4.6001 32.6196 4.97607 33.6338 5.85059C34.6479 6.72461 35.2178 7.99512 35.1973 9.33643C35.187 9.98779 34.6562 10.5088 34.0073 10.5088C34.001 10.5088 33.9946 10.5088 33.9883 10.5083C33.3311 10.4985 32.8062 9.95703 32.8164 9.2998C32.8262 8.66602 32.5576 8.06641 32.0791 7.6543C31.6011 7.2417 30.9683 7.06494 30.3428 7.16797C29.6943 7.27539 29.0815 6.83643 28.9741 6.1875C28.8672 5.53857 29.3062 4.92578 29.9551 4.81885L29.9551 4.81885Z" fill="#9A009B" fill-opacity="1.000000" fill-rule="evenodd"/>
	<path id="Path" d="M0.0385742 29.8647C0.097168 29.21 0.675293 28.7261 1.33008 28.7852C1.98486 28.8438 2.46875 29.4224 2.41016 30.0771C2.24219 31.9531 2.82324 33.7686 4.04688 35.188C5.27051 36.6079 6.97998 37.4512 8.86084 37.562C9.51709 37.6006 10.0176 38.1641 9.979 38.8208C9.94141 39.4531 9.41699 39.9409 8.7915 39.9409C8.76807 39.9409 8.74414 39.9404 8.72021 39.939C6.19141 39.79 3.89111 38.6548 2.24365 36.7427C0.595703 34.8306 -0.1875 32.3882 0.0385742 29.8647Z" fill="#9A009B" fill-opacity="1.000000" fill-rule="evenodd"/>
	<path id="Path" d="M9.26562 35.1978C7.9502 35.1978 6.70898 34.6304 5.8501 33.6338C4.97607 32.6191 4.6001 31.2783 4.81836 29.9546C4.92578 29.3062 5.53906 28.8662 6.18701 28.9741C6.83594 29.0815 7.2749 29.6943 7.16748 30.3428C7.06445 30.9678 7.2417 31.6011 7.65381 32.0791C8.06592 32.5576 8.6665 32.8228 9.29932 32.8164C9.95117 32.8101 10.498 33.3306 10.5083 33.9883C10.5186 34.6455 9.99365 35.187 9.33643 35.1968C9.3125 35.1973 9.28906 35.1978 9.26562 35.1978L9.26562 35.1978Z" fill="#9A009B" fill-opacity="1.000000" fill-rule="evenodd"/>
</svg>
