<svg width="20.859863" height="27.065430" viewBox="0 0 20.8599 27.0654" fill="none" xmlns="http://www.w3.org/2000/svg" xmlns:xlink="http://www.w3.org/1999/xlink">
	<desc>
			Created with Pixso.
	</desc>
	<defs/>
	<path id="Combined Shape" d="M10.4297 0C4.67871 0 0 4.6792 0 10.4307C0 14.5405 1.7207 18.6978 4.97559 22.4529C7.40723 25.2576 9.81641 26.8467 9.91797 26.9131C10.0732 27.0146 10.2515 27.0654 10.4297 27.0654C10.6079 27.0654 10.7856 27.0146 10.9414 26.9131C11.0425 26.8467 13.4526 25.2576 15.8838 22.4529C19.1392 18.6978 20.8599 14.5405 20.8599 10.4307C20.8599 4.6792 16.1807 0 10.4297 0ZM1.86963 10.4309C1.86963 18.052 8.51074 23.5532 10.4292 24.9824C12.3477 23.5532 18.9893 18.052 18.9893 10.4309C18.9893 5.71045 15.1494 1.87012 10.4292 1.87012C5.70947 1.87012 1.86963 5.71045 1.86963 10.4309ZM10.4302 6.28906C8.14746 6.28906 6.29053 8.14624 6.29053 10.429C6.29053 12.7112 8.14746 14.5679 10.4302 14.5679C12.7124 14.5679 14.5693 12.7112 14.5693 10.429C14.5693 8.14624 12.7124 6.28906 10.4302 6.28906ZM10.4302 12.698C9.17871 12.698 8.16064 11.6802 8.16064 10.429C8.16064 9.17725 9.17871 8.15894 10.4302 8.15894C11.6812 8.15894 12.6997 9.17725 12.6997 10.429C12.6997 11.6802 11.6812 12.698 10.4302 12.698Z" clip-rule="evenodd" fill="#9A009B" fill-opacity="1.000000" fill-rule="evenodd"/>
</svg>
