<svg width="19.938965" height="30.526367" viewBox="0 0 19.939 30.5264" fill="none" xmlns="http://www.w3.org/2000/svg" xmlns:xlink="http://www.w3.org/1999/xlink">
	<desc>
			Created with Pixso.
	</desc>
	<defs/>
	<path id="Combined Shape" d="M3.66357 0L16.2754 0C18.2954 0 19.939 1.64331 19.939 3.66333L19.939 26.863C19.939 28.8828 18.2954 30.5264 16.2754 30.5264L3.66357 30.5264C1.64355 30.5264 0 28.8828 0 26.863L0 3.66333C0 1.64331 1.64355 0 3.66357 0ZM3.66357 1.97363C2.73145 1.97363 1.97363 2.73169 1.97363 3.66333L1.97363 21.8027L17.9653 21.8027L17.9653 3.66333C17.9653 2.73169 17.207 1.97363 16.2754 1.97363L3.66357 1.97363ZM9.01221 5.95679L10.9268 5.95679C11.4717 5.95679 11.9136 5.51489 11.9136 4.96997C11.9136 4.4248 11.4717 3.98315 10.9268 3.98315L9.01221 3.98315C8.46729 3.98315 8.02539 4.4248 8.02539 4.96997C8.02539 5.51489 8.4668 5.95679 9.01221 5.95679ZM17.9653 26.863C17.9653 27.7947 17.207 28.5527 16.2754 28.5527L3.66357 28.5527C2.73193 28.5527 1.97363 27.7947 1.97363 26.863L1.97363 23.7764L17.9653 23.7764L17.9653 26.863ZM10.9268 26.6514L9.01221 26.6514C8.4668 26.6514 8.02539 26.2095 8.02539 25.6646C8.02539 25.1194 8.46729 24.6777 9.01221 24.6777L10.9268 24.6777C11.4717 24.6777 11.9136 25.1194 11.9136 25.6646C11.9136 26.2095 11.4717 26.6514 10.9268 26.6514Z" clip-rule="evenodd" fill="#9A009B" fill-opacity="1.000000" fill-rule="evenodd"/>
</svg>
