<svg width="24.000000" height="18.869629" viewBox="0 0 24 18.8696" fill="none" xmlns="http://www.w3.org/2000/svg" xmlns:xlink="http://www.w3.org/1999/xlink">
	<desc>
			Created with Pixso.
	</desc>
	<defs/>
	<path id="Combined Shape" d="M21.126 0L2.87402 0C1.28906 0 0 1.28906 0 2.87378L0 15.9958C0 17.5806 1.28906 18.8696 2.87402 18.8696L21.126 18.8696C22.7109 18.8696 24 17.5806 24 15.9958L24 2.87378C24 1.28931 22.7109 0 21.126 0ZM20.79 1.91577L12 9.01562L3.35498 1.91577L20.79 1.91577ZM22.084 3.33325L12.6333 11.011C12.4526 11.1704 12.2261 11.2502 12 11.2502C11.7739 11.2502 11.5479 11.1704 11.3667 11.011L1.91602 3.21265L1.91602 15.9958C1.91602 16.5239 2.3457 16.9539 2.87354 16.9539L21.126 16.9539C21.6543 16.9539 22.084 16.5239 22.084 15.9958L22.084 3.33325Z" clip-rule="evenodd" fill="#9A009B" fill-opacity="1.000000" fill-rule="evenodd"/>
</svg>
