<svg width="135.227051" height="21.813477" viewBox="0 0 135.227 21.8135" fill="none" xmlns="http://www.w3.org/2000/svg" xmlns:xlink="http://www.w3.org/1999/xlink">
	<desc>
			Created with Pixso.
	</desc>
	<defs/>
	<path id="zanimaka" d="M1.61328 21.5264L14.4443 21.5264L14.4443 18.1426L7.1709 18.1426L7.1709 18.0332L14.1914 9.00977L14.1914 6.25488L1.86621 6.25488L1.86621 9.63184L9.08496 9.63184L9.08496 9.74121L1.61328 19.0039L1.61328 21.5264ZM22.7982 21.8135C25.0609 21.8135 26.5169 20.8291 27.262 19.4072L27.3851 19.4072L27.3851 21.5264L31.4046 21.5264L31.4046 11.2246C31.4046 7.58789 28.3216 6.05664 24.9173 6.05664C21.2601 6.05664 18.8538 7.80664 18.2659 10.5889L22.1829 10.9102C22.47 9.8916 23.3792 9.14648 24.8968 9.14648C26.3392 9.14648 27.1663 9.87109 27.1663 11.1289L27.1663 11.1836C27.1663 12.168 26.1204 12.2979 23.4681 12.5576C20.4466 12.8379 17.7327 13.8496 17.7327 17.2607C17.7327 20.2822 19.886 21.8135 22.7982 21.8135ZM24.015 18.8945C22.7093 18.8945 21.7796 18.2861 21.7796 17.124C21.7796 15.9277 22.764 15.3398 24.2542 15.1348C25.1771 15.0049 26.6878 14.7861 27.1937 14.4443L27.1937 16.0645C27.1937 17.6709 25.8743 18.8945 24.015 18.8945ZM39.6758 12.6943C39.6826 10.7256 40.8584 9.57715 42.5674 9.57715C44.2695 9.57715 45.2949 10.6914 45.2812 12.5576L45.2812 21.5264L49.5195 21.5264L49.5195 11.7988C49.5195 8.24414 47.4277 6.05664 44.249 6.05664C41.9795 6.05664 40.3389 7.1709 39.6553 8.94824L39.4775 8.94824L39.4775 6.25488L35.4375 6.25488L35.4375 21.5264L39.6758 21.5264L39.6758 12.6943ZM53.5947 21.5264L57.8329 21.5264L57.8329 6.25488L53.5947 6.25488L53.5947 21.5264ZM55.7275 4.28613C56.9853 4.28613 58.0244 3.32227 58.0244 2.13965C58.0244 0.963867 56.9853 0 55.7275 0C54.4697 0 53.4374 0.963867 53.4374 2.13965C53.4374 3.32227 54.4697 4.28613 55.7275 4.28613ZM61.9578 21.5264L66.1961 21.5264L66.1961 12.3594C66.1961 10.6709 67.2693 9.54297 68.6844 9.54297C70.0721 9.54297 71.0086 10.5 71.0086 12.0039L71.0086 21.5264L75.117 21.5264L75.117 12.2021C75.117 10.6162 76.0193 9.54297 77.5574 9.54297C78.9109 9.54297 79.9295 10.3906 79.9295 12.0928L79.9295 21.5264L84.1541 21.5264L84.1541 11.252C84.1541 7.94336 82.1853 6.05664 79.3416 6.05664C77.1062 6.05664 75.3631 7.19824 74.7342 8.94824L74.577 8.94824C74.0916 7.17773 72.5262 6.05664 70.4344 6.05664C68.3699 6.05664 66.8113 7.15039 66.1756 8.94824L65.9978 8.94824L65.9978 6.25488L61.9578 6.25488L61.9578 21.5264ZM92.5931 21.8135C94.8558 21.8135 96.3118 20.8291 97.0569 19.4072L97.18 19.4072L97.18 21.5264L101.2 21.5264L101.2 11.2246C101.2 7.58789 98.1165 6.05664 94.7122 6.05664C91.055 6.05664 88.6487 7.80664 88.0608 10.5889L91.9778 10.9102C92.2649 9.8916 93.1741 9.14648 94.6917 9.14648C96.1341 9.14648 96.9612 9.87109 96.9612 11.1289L96.9612 11.1836C96.9612 12.168 95.9153 12.2979 93.263 12.5576C90.2415 12.8379 87.5276 13.8496 87.5276 17.2607C87.5276 20.2822 89.6809 21.8135 92.5931 21.8135ZM93.8099 18.8945C92.5042 18.8945 91.5745 18.2861 91.5745 17.124C91.5745 15.9277 92.5589 15.3398 94.0491 15.1348C94.972 15.0049 96.4827 14.7861 96.9886 14.4443L96.9886 16.0645C96.9886 17.6709 95.6692 18.8945 93.8099 18.8945ZM105.232 21.5264L109.471 21.5264L109.471 16.6729L110.612 15.374L114.782 21.5264L119.738 21.5264L113.784 12.8652L119.451 6.25488L114.591 6.25488L109.696 12.0518L109.471 12.0518L109.471 1.16211L105.232 1.16211L105.232 21.5264ZM126.62 21.8135C128.883 21.8135 130.339 20.8291 131.084 19.4072L131.207 19.4072L131.207 21.5264L135.227 21.5264L135.227 11.2246C135.227 7.58789 132.144 6.05664 128.74 6.05664C125.082 6.05664 122.676 7.80664 122.088 10.5889L126.005 10.9102C126.292 9.8916 127.202 9.14648 128.719 9.14648C130.161 9.14648 130.989 9.87109 130.989 11.1289L130.989 11.1836C130.989 12.168 129.943 12.2979 127.29 12.5576C124.269 12.8379 121.555 13.8496 121.555 17.2607C121.555 20.2822 123.708 21.8135 126.62 21.8135ZM127.837 18.8945C126.532 18.8945 125.602 18.2861 125.602 17.124C125.602 15.9277 126.586 15.3398 128.077 15.1348C128.999 15.0049 130.51 14.7861 131.016 14.4443L131.016 16.0645C131.016 17.6709 129.697 18.8945 127.837 18.8945Z" fill="#2C254A" fill-opacity="1.000000" fill-rule="evenodd"/>
</svg>
