<svg width="141" height="39" viewBox="0 0 141 39" fill="none" xmlns="http://www.w3.org/2000/svg">
<path d="M46.2325 29.0993C44.3749 29.0993 42.7791 28.7277 41.4449 27.9847C40.1277 27.2247 39.1145 26.1608 38.4052 24.7929C37.6959 23.4082 37.3413 21.7785 37.3413 19.904C37.3413 18.5024 37.5439 17.2442 37.9492 16.1297C38.3545 14.9982 38.9371 14.0356 39.6971 13.2419C40.457 12.4313 41.3858 11.8149 42.4835 11.3927C43.5981 10.9536 44.8478 10.7341 46.2325 10.7341C47.1614 10.7341 48.0733 10.8523 48.9683 11.0887C49.8634 11.3252 50.6486 11.6629 51.3241 12.102C51.6788 12.3215 51.9152 12.5917 52.0334 12.9126C52.1516 13.2166 52.1769 13.5205 52.1094 13.8245C52.0418 14.1116 51.8983 14.3565 51.6788 14.5591C51.4761 14.7618 51.2144 14.88 50.8935 14.9138C50.5895 14.9306 50.2518 14.8209 49.8802 14.5845C49.3567 14.2467 48.791 14.0018 48.1831 13.8498C47.5751 13.6979 46.9587 13.6219 46.3339 13.6219C45.1349 13.6219 44.1216 13.8667 43.2941 14.3565C42.4666 14.8462 41.8418 15.5555 41.4196 16.4843C40.9974 17.4131 40.7863 18.553 40.7863 19.904C40.7863 21.2381 40.9974 22.378 41.4196 23.3237C41.8418 24.2694 42.4666 24.9872 43.2941 25.4769C44.1216 25.9666 45.1349 26.2115 46.3339 26.2115C46.9756 26.2115 47.6089 26.1355 48.2337 25.9835C48.8586 25.8146 49.4496 25.5613 50.0069 25.2236C50.3784 25.004 50.7077 24.9112 50.9948 24.9449C51.2988 24.9618 51.5521 25.0631 51.7548 25.2489C51.9574 25.4347 52.0925 25.6711 52.1601 25.9582C52.2276 26.2284 52.2107 26.5155 52.1094 26.8194C52.0081 27.1065 51.8054 27.3598 51.5014 27.5794C50.8259 28.0691 50.0153 28.4491 49.0696 28.7193C48.1408 28.9726 47.1951 29.0993 46.2325 29.0993ZM56.4585 29.0486C55.9349 29.0486 55.5296 28.9135 55.2426 28.6433C54.9724 28.3562 54.8373 27.9509 54.8373 27.4274V17.8522C54.8373 17.3287 54.9724 16.9318 55.2426 16.6616C55.5128 16.3914 55.8927 16.2563 56.3825 16.2563C56.8722 16.2563 57.2522 16.3914 57.5224 16.6616C57.7926 16.9318 57.9277 17.3287 57.9277 17.8522V19.4481H57.6744C57.9108 18.4348 58.3752 17.6664 59.0676 17.1429C59.76 16.6194 60.6803 16.307 61.8287 16.2057C62.1833 16.1719 62.462 16.2648 62.6646 16.4843C62.8841 16.6869 63.0108 17.0078 63.0446 17.4469C63.0784 17.8691 62.977 18.2153 62.7406 18.4855C62.5211 18.7388 62.1833 18.8908 61.7274 18.9414L61.1701 18.9921C60.1399 19.0934 59.3631 19.4143 58.8396 19.9547C58.3161 20.4782 58.0543 21.2212 58.0543 22.1838V27.4274C58.0543 27.9509 57.9192 28.3562 57.649 28.6433C57.3788 28.9135 56.982 29.0486 56.4585 29.0486ZM70.6639 29.0993C69.2623 29.0993 68.0548 28.8375 67.0416 28.314C66.0283 27.7905 65.2431 27.0474 64.6858 26.0848C64.1454 25.1223 63.8752 23.9823 63.8752 22.6651C63.8752 21.3817 64.1369 20.2587 64.6604 19.2961C65.2008 18.3335 65.9354 17.582 66.8643 17.0416C67.81 16.4843 68.8823 16.2057 70.0813 16.2057C70.9595 16.2057 71.7447 16.3492 72.4371 16.6363C73.1464 16.9234 73.7459 17.3371 74.2356 17.8775C74.7423 18.4179 75.1222 19.0765 75.3756 19.8534C75.6458 20.6133 75.7809 21.4746 75.7809 22.4371C75.7809 22.7411 75.6711 22.9775 75.4515 23.1464C75.2489 23.2984 74.9534 23.3744 74.565 23.3744H66.4336V21.5505H73.5517L73.1464 21.9305C73.1464 21.1537 73.0282 20.5035 72.7918 19.98C72.5722 19.4565 72.2429 19.0596 71.8038 18.7894C71.3817 18.5024 70.8497 18.3588 70.208 18.3588C69.4987 18.3588 68.8908 18.5277 68.3841 18.8654C67.8944 19.1863 67.5144 19.6507 67.2442 20.2587C66.9909 20.8497 66.8643 21.559 66.8643 22.3865V22.5638C66.8643 23.9486 67.1851 24.9872 67.8268 25.6795C68.4855 26.355 69.448 26.6928 70.7146 26.6928C71.1537 26.6928 71.6434 26.6421 72.1838 26.5408C72.7411 26.4226 73.2646 26.2284 73.7544 25.9582C74.109 25.7555 74.4214 25.6711 74.6916 25.7049C74.9618 25.7218 75.1729 25.8146 75.3249 25.9835C75.4938 26.1524 75.5951 26.3635 75.6289 26.6168C75.6626 26.8532 75.612 27.0981 75.4769 27.3514C75.3587 27.6047 75.1476 27.8243 74.8436 28.01C74.2525 28.3815 73.5686 28.6602 72.7918 28.8459C72.0318 29.0148 71.3226 29.0993 70.6639 29.0993ZM83.0507 29.0993C81.9699 29.0993 81.0158 28.8375 80.1883 28.314C79.3777 27.7905 78.7444 27.0474 78.2884 26.0848C77.8325 25.1054 77.6045 23.957 77.6045 22.6398C77.6045 21.3057 77.8325 20.1658 78.2884 19.2201C78.7444 18.2575 79.3777 17.5144 80.1883 16.9909C81.0158 16.4674 81.9699 16.2057 83.0507 16.2057C84.0809 16.2057 84.9759 16.459 85.7358 16.9656C86.5127 17.4722 87.0362 18.1393 87.3064 18.9668H87.0277V12.3806C87.0277 11.8571 87.1628 11.4603 87.433 11.1901C87.7032 10.9199 88.0916 10.7848 88.5983 10.7848C89.1049 10.7848 89.4933 10.9199 89.7635 11.1901C90.0506 11.4603 90.1941 11.8571 90.1941 12.3806V27.4274C90.1941 27.9509 90.059 28.3562 89.7888 28.6433C89.5186 28.9135 89.1302 29.0486 88.6236 29.0486C88.117 29.0486 87.7286 28.9135 87.4584 28.6433C87.1882 28.3562 87.0531 27.9509 87.0531 27.4274V25.4516L87.3317 26.2115C87.0784 27.0896 86.5633 27.7905 85.7865 28.314C85.0097 28.8375 84.0977 29.0993 83.0507 29.0993ZM83.9373 26.6928C84.5622 26.6928 85.111 26.5408 85.5838 26.2368C86.0567 25.9329 86.4198 25.4853 86.6731 24.8943C86.9433 24.2863 87.0784 23.5348 87.0784 22.6398C87.0784 21.2888 86.7913 20.284 86.2171 19.6254C85.643 18.9499 84.883 18.6121 83.9373 18.6121C83.3125 18.6121 82.7636 18.7641 82.2908 19.0681C81.8179 19.3552 81.4464 19.8027 81.1762 20.4106C80.9229 21.0017 80.7962 21.7448 80.7962 22.6398C80.7962 23.9739 81.0833 24.9872 81.6575 25.6795C82.2317 26.355 82.9916 26.6928 83.9373 26.6928ZM95.0478 29.0233C94.5412 29.0233 94.1528 28.8713 93.8826 28.5673C93.6124 28.2633 93.4773 27.8411 93.4773 27.3007V18.0042C93.4773 17.4469 93.6124 17.0247 93.8826 16.7376C94.1528 16.4336 94.5412 16.2816 95.0478 16.2816C95.5545 16.2816 95.9429 16.4336 96.2131 16.7376C96.5002 17.0247 96.6437 17.4469 96.6437 18.0042V27.3007C96.6437 27.8411 96.5086 28.2633 96.2384 28.5673C95.9682 28.8713 95.5714 29.0233 95.0478 29.0233ZM95.0478 13.9258C94.4568 13.9258 93.9924 13.7823 93.6546 13.4952C93.3338 13.1912 93.1733 12.7775 93.1733 12.254C93.1733 11.7136 93.3338 11.2998 93.6546 11.0127C93.9924 10.7257 94.4568 10.5821 95.0478 10.5821C95.6558 10.5821 96.1202 10.7257 96.4411 11.0127C96.7619 11.2998 96.9224 11.7136 96.9224 12.254C96.9224 12.7775 96.7619 13.1912 96.4411 13.4952C96.1202 13.7823 95.6558 13.9258 95.0478 13.9258Z" fill="#970C98"/>
<path d="M104.721 29.0486C104.299 29.0486 103.936 28.9473 103.632 28.7446C103.328 28.5251 103.083 28.1873 102.898 27.7314L99.2245 18.3588C99.0725 17.9535 99.0219 17.5989 99.0725 17.2949C99.1401 16.974 99.3005 16.7207 99.5538 16.535C99.8071 16.3492 100.145 16.2563 100.567 16.2563C100.939 16.2563 101.243 16.3492 101.479 16.535C101.715 16.7038 101.918 17.0331 102.087 17.5229L105.152 25.9582H104.569L107.736 17.3202C107.871 16.9487 108.048 16.6785 108.268 16.5096C108.504 16.3408 108.808 16.2563 109.18 16.2563C109.551 16.2563 109.855 16.3492 110.092 16.535C110.328 16.7038 110.505 16.9656 110.624 17.3202L113.739 25.9582H113.207L116.298 17.4469C116.467 16.9909 116.678 16.6785 116.931 16.5096C117.201 16.3408 117.497 16.2563 117.818 16.2563C118.223 16.2563 118.535 16.3576 118.755 16.5603C118.974 16.7629 119.101 17.0247 119.135 17.3456C119.169 17.6495 119.11 17.9873 118.958 18.3588L115.31 27.7314C115.141 28.1704 114.896 28.4998 114.575 28.7193C114.271 28.9388 113.908 29.0486 113.486 29.0486C113.064 29.0486 112.692 28.9388 112.371 28.7193C112.067 28.4998 111.831 28.1704 111.662 27.7314L108.344 18.9414H109.788L106.545 27.706C106.376 28.162 106.14 28.4998 105.836 28.7193C105.532 28.9388 105.16 29.0486 104.721 29.0486ZM123.1 29.0233C122.594 29.0233 122.205 28.8713 121.935 28.5673C121.665 28.2633 121.53 27.8411 121.53 27.3007V18.0042C121.53 17.4469 121.665 17.0247 121.935 16.7376C122.205 16.4336 122.594 16.2816 123.1 16.2816C123.607 16.2816 123.995 16.4336 124.265 16.7376C124.553 17.0247 124.696 17.4469 124.696 18.0042V27.3007C124.696 27.8411 124.561 28.2633 124.291 28.5673C124.021 28.8713 123.624 29.0233 123.1 29.0233ZM123.1 13.9258C122.509 13.9258 122.045 13.7823 121.707 13.4952C121.386 13.1912 121.226 12.7775 121.226 12.254C121.226 11.7136 121.386 11.2998 121.707 11.0127C122.045 10.7257 122.509 10.5821 123.1 10.5821C123.708 10.5821 124.173 10.7257 124.493 11.0127C124.814 11.2998 124.975 11.7136 124.975 12.254C124.975 12.7775 124.814 13.1912 124.493 13.4952C124.173 13.7823 123.708 13.9258 123.1 13.9258ZM128.847 28.9726C128.476 28.9726 128.164 28.8713 127.91 28.6686C127.674 28.4491 127.547 28.1704 127.53 27.8327C127.53 27.4949 127.674 27.1403 127.961 26.7688L132.065 21.7025V23.1971L128.214 18.4601C127.91 18.0886 127.767 17.734 127.784 17.3962C127.8 17.0585 127.927 16.7883 128.164 16.5856C128.417 16.3661 128.729 16.2563 129.101 16.2563C129.489 16.2563 129.81 16.3239 130.063 16.459C130.334 16.5941 130.578 16.8052 130.798 17.0922L133.838 20.9933H132.723L135.788 17.0922C136.025 16.8052 136.27 16.5941 136.523 16.459C136.776 16.3239 137.089 16.2563 137.46 16.2563C137.848 16.2563 138.161 16.3661 138.397 16.5856C138.634 16.8052 138.752 17.0838 138.752 17.4216C138.769 17.7593 138.625 18.1139 138.321 18.4855L134.496 23.1717V21.7532L138.6 26.7688C138.904 27.1234 139.047 27.4696 139.031 27.8074C139.014 28.1451 138.879 28.4238 138.625 28.6433C138.389 28.8628 138.076 28.9726 137.688 28.9726C137.317 28.9726 137.004 28.9051 136.751 28.77C136.497 28.6349 136.253 28.4238 136.016 28.1367L132.723 23.9823H133.787L130.519 28.1367C130.3 28.4069 130.063 28.618 129.81 28.77C129.557 28.9051 129.236 28.9726 128.847 28.9726Z" fill="black"/>
<path d="M0 34.8872C0 36.7626 1.52032 38.283 3.39574 38.283H31.6021C32.4906 38.283 33.2858 37.5157 32.3785 36.6288L7.7842 8.40976C7.74903 8.36753 7.71288 8.32615 7.6758 8.28564C7.03451 7.58508 6.11253 7.14576 5.08793 7.14576H3.50749C1.57036 7.14576 0 5.5754 0 3.63826V34.8872Z" fill="#EB92EC"/>
<path d="M0 3.39574C0 1.52032 1.52032 0 3.39574 0H31.6021C32.4906 0 33.2858 0.767246 32.3785 1.65417L7.7842 29.8732C7.74903 29.9154 7.71288 29.9568 7.6758 29.9973C7.03451 30.6979 6.11253 31.1372 5.08793 31.1372H3.50749C1.57036 31.1372 0 32.7076 0 34.6447V3.39574Z" fill="#970C98"/>
<path d="M10.1363 6.85575V15.5327H7.28465V6.85575H10.1363ZM13.7837 6.85575V9.15568H3.73022V6.85575H13.7837ZM13.7837 3.63818V5.93811H3.73022V3.63818H13.7837Z" fill="white"/>
</svg>
