<?xml version="1.0" encoding="utf-8"?><svg xmlns="http://www.w3.org/2000/svg" xmlns:xlink="http://www.w3.org/1999/xlink"><symbol viewBox="0 0 16.1421 11.1925" id="check" xmlns="http://www.w3.org/2000/svg"><desc>Created with Pixso.</desc><defs/><path id="aPath" d="M15.8491 0.292969C16.2119 0.65564 16.2378 1.22742 15.9268 1.62L15.8491 1.70715L6.65674 10.8995C6.29443 11.2622 5.72217 11.2881 5.33008 10.9773L5.24268 10.8995L0.292969 5.94983C-0.0976562 5.55933 -0.0976562 4.92615 0.292969 4.53564C0.655273 4.17297 1.22754 4.14709 1.62012 4.45789L1.70703 4.53564L5.94971 8.77808L14.4351 0.292969C14.7979 -0.0697021 15.3696 -0.0955811 15.7622 0.21521L15.8491 0.292969Z" fill-opacity="1.000000" fill-rule="evenodd"/></symbol><symbol viewBox="0 0 16.1501 16.1504" id="close" xmlns="http://www.w3.org/2000/svg"><desc>Created with Pixso.</desc><defs/><path id="bicon_close_small" d="M9.48926 8.0752L15.8533 1.71143C16.2493 1.31543 16.2493 0.692871 15.8533 0.296875C15.4573 -0.0991211 14.8352 -0.0991211 14.4392 0.296875L8.0752 6.66113L1.71118 0.296875C1.31519 -0.0991211 0.692871 -0.0991211 0.296875 0.296875C-0.098877 0.692871 -0.098877 1.31543 0.296875 1.71143L6.66089 8.0752L0.296875 14.439C-0.098877 14.835 -0.098877 15.4575 0.296875 15.8535C0.692871 16.2495 1.31519 16.2495 1.71118 15.8535L8.0752 9.48926L14.4392 15.8535C14.8352 16.2495 15.4573 16.2495 15.8533 15.8535C16.2493 15.4575 16.2493 14.835 15.8533 14.439L9.48926 8.0752Z" fill-opacity="1.000000" fill-rule="evenodd"/></symbol><symbol viewBox="0 0 18.0083 10.0042" id="drop" xmlns="http://www.w3.org/2000/svg"><desc>Created with Pixso.</desc><defs/><path id="cLine 6 (Граница)" d="M1.71143 0.296875C1.31543 -0.098877 0.692871 -0.098877 0.296875 0.296875C-0.0991211 0.692871 -0.0991211 1.31519 0.296875 1.71118L8.29688 9.71118C8.49219 9.90649 8.72803 10.0042 9.00391 10.0042C9.28027 10.0042 9.51611 9.90649 9.71143 9.71118L17.7114 1.71118C18.1074 1.31519 18.1074 0.692871 17.7114 0.296875C17.3154 -0.098877 16.6929 -0.098877 16.2969 0.296875L9.00391 7.58984L1.71143 0.296875Z" fill-opacity="1.000000" fill-rule="evenodd"/></symbol><symbol viewBox="0 0 463 463" style="enable-background:new 0 0 512 512" xml:space="preserve" id="trash" xmlns="http://www.w3.org/2000/svg"><g><path d="M412.145 86.709h-6.951V72.532c0-12.104-9.848-21.952-21.952-21.952h-81.053l-9.902-34.66C289.608 6.547 280.928 0 271.18 0h-79.36c-9.749 0-18.428 6.547-21.107 15.921l-9.902 34.66H79.758c-12.104 0-21.952 9.848-21.952 21.952V86.71h-6.951a7.5 7.5 0 0 0 0 15h14.753L91.832 429.5c1.503 18.785 17.442 33.5 36.287 33.5h206.762c18.845 0 34.784-14.715 36.287-33.5l26.223-327.79h14.753c4.142 0 7.5-3.358 7.5-7.5s-3.357-7.501-7.499-7.501zM185.136 20.042A6.98 6.98 0 0 1 191.82 15h79.36a6.98 6.98 0 0 1 6.684 5.042l8.725 30.539H176.411l8.725-30.539zM79.758 65.581h216.746l.024.002.028-.002h86.686a6.96 6.96 0 0 1 6.952 6.952V86.71H72.806V72.532c0-3.833 3.119-6.951 6.952-6.951zm276.458 362.722C355.332 439.348 345.961 448 334.881 448H128.119c-11.08 0-20.451-8.651-21.335-19.696L80.656 101.709h301.687l-26.127 326.594z" opacity="1" data-original="#000000"/><path d="M231.5 426.871a7.5 7.5 0 0 0 7.5-7.5V137.564a7.5 7.5 0 0 0-15 0V419.37a7.5 7.5 0 0 0 7.5 7.501zM158.978 419.755a7.5 7.5 0 0 0 14.981-.769L159.506 137.18a7.493 7.493 0 0 0-7.875-7.106 7.5 7.5 0 0 0-7.106 7.875l14.453 281.806zM296.147 426.861a7.5 7.5 0 0 0 7.875-7.106l14.452-281.806a7.5 7.5 0 0 0-7.106-7.875 7.496 7.496 0 0 0-7.875 7.106l-14.452 281.806a7.502 7.502 0 0 0 7.106 7.875z" opacity="1" data-original="#000000"/></g></symbol></svg>