<?xml version="1.0" encoding="utf-8"?><svg xmlns="http://www.w3.org/2000/svg" xmlns:xlink="http://www.w3.org/1999/xlink"><symbol viewBox="0 0 16.1501 16.1504" id="close" xmlns="http://www.w3.org/2000/svg"><desc>Created with Pixso.</desc><defs/><path id="aicon_close_small" d="M9.48926 8.0752L15.8533 1.71143C16.2493 1.31543 16.2493 0.692871 15.8533 0.296875C15.4573 -0.0991211 14.8352 -0.0991211 14.4392 0.296875L8.0752 6.66113L1.71118 0.296875C1.31519 -0.0991211 0.692871 -0.0991211 0.296875 0.296875C-0.098877 0.692871 -0.098877 1.31543 0.296875 1.71143L6.66089 8.0752L0.296875 14.439C-0.098877 14.835 -0.098877 15.4575 0.296875 15.8535C0.692871 16.2495 1.31519 16.2495 1.71118 15.8535L8.0752 9.48926L14.4392 15.8535C14.8352 16.2495 15.4573 16.2495 15.8533 15.8535C16.2493 15.4575 16.2493 14.835 15.8533 14.439L9.48926 8.0752Z" fill-opacity="1.000000" fill-rule="evenodd"/></symbol><symbol viewBox="0 0 18.0083 10.0042" id="drop" xmlns="http://www.w3.org/2000/svg"><desc>Created with Pixso.</desc><defs/><path id="bLine 6 (Граница)" d="M1.71143 0.296875C1.31543 -0.098877 0.692871 -0.098877 0.296875 0.296875C-0.0991211 0.692871 -0.0991211 1.31519 0.296875 1.71118L8.29688 9.71118C8.49219 9.90649 8.72803 10.0042 9.00391 10.0042C9.28027 10.0042 9.51611 9.90649 9.71143 9.71118L17.7114 1.71118C18.1074 1.31519 18.1074 0.692871 17.7114 0.296875C17.3154 -0.098877 16.6929 -0.098877 16.2969 0.296875L9.00391 7.58984L1.71143 0.296875Z" fill-opacity="1.000000" fill-rule="evenodd"/></symbol></svg>