<?xml version="1.0" encoding="utf-8"?><svg xmlns="http://www.w3.org/2000/svg" xmlns:xlink="http://www.w3.org/1999/xlink"><symbol viewBox="0 0 42 42" id="icon1" xmlns="http://www.w3.org/2000/svg"><path d="M37.6487 5.82713C36.8028 5.78029 36.0124 6.37149 36.0124 7.26267V12.7708H22.4612L21.8606 11.5153C23.2509 9.67193 22.6529 6.94932 20.6328 5.8428L20.6756 1.79258C20.7001 -0.545962 17.0978 -0.563353 17.0732 1.7546L17.0305 5.80055C14.9894 6.86343 14.3338 9.57973 15.6833 11.4498L15.0167 12.7708H1.43555C0.644027 12.7708 0 13.4149 0 14.2064V40.5368C0 41.3283 0.644027 41.9723 1.43555 41.9723H37.9044C40.1504 41.9723 41.9793 40.1547 41.9991 37.9132C41.9993 37.907 42 37.901 42 37.8948V10.1785C42 7.77914 40.048 5.82713 37.6487 5.82713ZM37.2428 7.26267C37.2428 7.05907 37.4993 7.02528 37.6487 7.0576C39.3696 7.0576 40.7695 8.45754 40.7695 10.1784V34.9705C40.0301 34.2456 39.0179 33.7981 37.9033 33.7981C37.7432 33.8226 37.2428 33.868 37.2428 33.593V7.26267ZM27.3764 25.8965L26.7337 27.7182L19.6666 12.9458C20.1204 12.84 20.5442 12.6543 20.921 12.4026L27.3764 25.8965ZM16.6038 12.3569C16.9751 12.6164 17.3946 12.8114 17.8461 12.9268L10.469 27.5465L9.86491 25.7116L16.6038 12.3569ZM20.8937 18.362L16.5053 18.3156L18.7466 13.8738L20.8937 18.362ZM18.3036 1.76765C18.3114 1.01567 19.4527 1.0479 19.445 1.77962L19.4066 5.42214C19.0299 5.3616 18.6433 5.35668 18.2652 5.40819L18.3036 1.76765ZM16.9724 7.34766C17.4616 6.86876 18.1393 6.59798 18.8233 6.6038C20.2603 6.61898 21.417 7.80039 21.402 9.23741C21.3869 10.6652 20.2207 11.8162 18.7962 11.8162C18.787 11.8162 18.7775 11.8161 18.7683 11.8161C17.3312 11.8009 16.1746 10.6195 16.1897 9.18245C16.197 8.48633 16.475 7.83468 16.9724 7.34766ZM37.9044 40.7419H1.43555C1.32243 40.7419 1.23047 40.6499 1.23047 40.5368V14.2065C1.23047 14.0934 1.32243 14.0014 1.43555 14.0014H14.3957L12.2414 18.2707L10.163 18.2487C9.3724 18.2346 9.35591 19.4707 10.1501 19.4791L11.6237 19.4947L8.72796 25.2334C8.60467 25.4778 8.58391 25.7556 8.66947 26.0156L9.45533 28.4025C9.73506 29.2522 10.9411 29.3423 11.344 28.5438L15.8875 19.5397L21.4853 19.5988L25.8373 28.6958C26.2214 29.499 27.4319 29.437 27.7292 28.5945L28.5649 26.2258C28.6561 25.9676 28.6412 25.6892 28.5229 25.442L25.749 19.6437L27.2227 19.6592C28.0133 19.6733 28.0298 18.4372 27.2357 18.4289L25.1573 18.4069L23.0497 14.0013H36.0122V33.5931C36.0122 34.6727 36.9865 35.0626 37.9031 35.0286C39.4805 35.0286 40.7642 36.3095 40.7692 37.8858C40.7644 39.4615 39.4812 40.7419 37.9044 40.7419Z"/><path d="M32.2237 30.6455H5.01851C4.45307 30.6455 3.99312 31.1055 3.99312 31.6709V37.249C3.99312 37.8145 4.45307 38.2744 5.01851 38.2744H32.2238C32.7892 38.2744 33.2491 37.8145 33.2491 37.249V31.6709C33.2491 31.1055 32.7891 30.6455 32.2237 30.6455ZM32.0186 37.0439H5.22359V31.876H6.809V32.9774C6.809 33.7474 8.03947 33.7824 8.03947 32.9774V31.876H9.60824V33.7977C9.60824 34.5677 10.8387 34.6027 10.8387 33.7977V31.876H12.4074V32.9774C12.4074 33.7474 13.6379 33.7824 13.6379 32.9774V31.876H15.2066V33.7977C15.2066 34.5677 16.4371 34.6027 16.4371 33.7977V31.876H18.0059V32.9774C18.0059 33.7474 19.2363 33.7824 19.2363 32.9774V31.876H20.8051V33.7977C20.8051 34.5677 22.0356 34.6027 22.0356 33.7977V31.876H23.6043V32.9774C23.6043 33.7474 24.8348 33.7824 24.8348 32.9774V31.876H26.4035V33.7977C26.4035 34.5677 27.6339 34.6027 27.6339 33.7977V31.876H29.2027V32.9774C29.2027 33.7474 30.4332 33.7824 30.4332 32.9774V31.876H32.0186V37.0439Z"/></symbol><symbol viewBox="0 0 56 24" id="icon2" xmlns="http://www.w3.org/2000/svg"><path d="M53.9813 9.43418L47.731 8.26749C47.4383 8.21279 47.1972 8.00056 47.1016 7.71345L45.1011 1.70312C44.762 0.684502 43.8247 0.000110499 42.7688 0.000110499H35.5066C34.1486 0.000110499 33.0439 1.12546 33.0439 2.50861V8.27819H31.2264V1.95112C31.2264 0.875346 30.3672 0 29.3109 0H9.54988C9.09652 0 8.72902 0.374337 8.72902 0.836131C8.72902 1.20791 8.96735 1.52264 9.29678 1.63137V11.1204C9.29678 11.5822 9.66428 11.9565 10.1176 11.9565C10.571 11.9565 10.9385 11.5822 10.9385 11.1204V1.67226H14.3088V11.1204C14.3088 11.5822 14.6763 11.9565 15.1297 11.9565C15.583 11.9565 15.9505 11.5822 15.9505 11.1204V1.67226H19.3208V11.1204C19.3208 11.5822 19.6883 11.9565 20.1417 11.9565C20.595 11.9565 20.9625 11.5822 20.9625 11.1204V1.67226H24.3328V11.1204C24.3328 11.5822 24.7003 11.9565 25.1537 11.9565C25.607 11.9565 25.9745 11.5822 25.9745 11.1204V1.67226H29.3105C29.4613 1.67226 29.5841 1.79726 29.5841 1.95101V16.2774C29.5841 16.431 29.4614 16.5562 29.3105 16.5562H21.6414C20.9545 16.019 20.0962 15.6987 19.1654 15.6987C18.2345 15.6987 17.3761 16.019 16.6893 16.5562H15.7239C16.3535 15.2431 17.6846 14.3588 19.1655 14.3588C19.7592 14.3588 20.3276 14.4933 20.8551 14.7585C21.2618 14.963 21.754 14.7928 21.9546 14.3787C22.1552 13.9645 21.9882 13.4632 21.5817 13.2588C20.8264 12.8791 20.0134 12.6865 19.1656 12.6865C17.2426 12.6865 15.4953 13.7298 14.5173 15.328C13.5393 13.7292 11.7927 12.6865 9.86904 12.6865C7.49242 12.6865 5.38126 14.2669 4.66124 16.5562H1.91549C1.76466 16.5562 1.64183 16.4312 1.64183 16.2774V1.95123C1.64183 1.7976 1.76455 1.67248 1.91549 1.67248H4.28477V11.1206C4.28477 11.5824 4.65227 11.9567 5.10564 11.9567C5.559 11.9567 5.9265 11.5824 5.9265 11.1206V1.56286C6.17445 1.41891 6.3419 1.14786 6.3419 0.836353C6.3419 0.37456 5.9744 0.000222697 5.52104 0.000222697H1.91549C0.859252 0.000111287 0 0.875346 0 1.95123V16.2776C0 17.3534 0.859252 18.2288 1.91549 18.2288H6.11834C5.91009 18.727 5.79459 19.2748 5.79459 19.8495C5.79459 22.1381 7.62247 24 9.86925 24C12.116 24 13.9439 22.1381 13.9439 19.8495C13.9439 19.2748 13.8285 18.727 13.6202 18.2288H15.4147C15.2064 18.727 15.0909 19.2748 15.0909 19.8495C15.0909 22.1381 16.9188 24 19.1656 24C21.4124 24 23.2403 22.1381 23.2403 19.8495C23.2403 19.2748 23.1249 18.727 22.9165 18.2288H29.3107C30.3668 18.2288 31.2262 17.3535 31.2262 16.2776V15.7555H33.0437V16.2776C33.0437 17.3534 33.9029 18.2288 34.9592 18.2288H39.4283V19.5617H34.7719C34.3186 19.5617 33.951 19.936 33.951 20.3978C33.951 20.8596 34.3186 21.2339 34.7719 21.2339H39.483C39.6481 21.8147 40.1738 22.2408 40.7965 22.2408H42.5186C43.1661 22.2408 43.7089 21.7797 43.8499 21.1634C44.3909 22.8097 45.9181 24 47.7142 24C49.5101 24 51.0374 22.8097 51.5784 21.1634C51.7195 21.7798 52.2622 22.241 52.9097 22.241H54.6318C55.3863 22.241 56 21.6158 56 20.8473V11.9017C56.0001 10.6903 55.1511 9.65265 53.9813 9.43418ZM9.86925 14.359C11.3502 14.359 12.6804 15.2425 13.3105 16.5564H12.3454C11.6585 16.0193 10.8001 15.699 9.86936 15.699C8.93858 15.699 8.0802 16.0193 7.39333 16.5564H6.42667C7.05711 15.235 8.3893 14.359 9.86925 14.359ZM9.86925 22.3276C8.52777 22.3276 7.43642 21.216 7.43642 19.8494C7.43642 18.4829 8.52777 17.3712 9.86925 17.3712C11.2107 17.3712 12.3022 18.4829 12.3022 19.8494C12.3022 21.216 11.2109 22.3276 9.86925 22.3276ZM19.1658 22.3276C17.8243 22.3276 16.7329 21.216 16.7329 19.8494C16.7329 18.4829 17.8242 17.3712 19.1658 17.3712C20.5073 17.3712 21.5987 18.4829 21.5987 19.8494C21.5987 21.216 20.5073 22.3276 19.1658 22.3276ZM31.2264 14.0831V9.95056H33.0439V14.0831H31.2264ZM47.7143 22.3276C46.3728 22.3276 45.2813 21.216 45.2813 19.8494C45.2813 18.4829 46.3727 17.3712 47.7143 17.3712C49.0558 17.3712 50.1471 18.4829 50.1471 19.8494C50.1471 21.216 49.0558 22.3276 47.7143 22.3276ZM47.7143 15.699C45.9586 15.699 44.4587 16.8358 43.8869 18.4248V18.3356C43.8869 16.1785 45.5744 14.3949 47.6485 14.3597C48.6829 14.3406 49.6604 14.7392 50.3978 15.4779C51.1354 16.2169 51.5416 17.2041 51.5416 18.2577V18.4251C50.9698 16.8359 49.47 15.699 47.7143 15.699ZM54.3583 20.5686H53.1835V18.2576C53.1835 16.752 52.603 15.3412 51.549 14.2854C50.4951 13.2298 49.0993 12.6605 47.6211 12.6875C44.6567 12.7378 42.2451 15.2715 42.2451 18.3355V20.5685H41.0704V17.9499C41.0704 17.1814 40.4567 16.5563 39.7022 16.5563H34.9594C34.8086 16.5563 34.6857 16.4313 34.6857 16.2775V2.50861C34.6857 2.04749 35.054 1.67248 35.5066 1.67248H42.7688C43.1207 1.67248 43.4332 1.90065 43.5462 2.24012L43.9278 3.38663H37.9925C37.238 3.38663 36.6243 4.01175 36.6243 4.78026V8.55694C36.6243 9.32544 37.238 9.95056 37.9925 9.95056H38.2869C38.7403 9.95056 39.1078 9.57622 39.1078 9.11443C39.1078 8.65264 38.7403 8.2783 38.2869 8.2783H38.266V5.05901H44.4843L45.5466 8.25056C45.5497 8.25992 45.5536 8.26894 45.5569 8.2783H42.263C41.8097 8.2783 41.4422 8.65264 41.4422 9.11443C41.4422 9.57622 41.8097 9.95056 42.263 9.95056H47.6394L53.6851 11.079C54.075 11.1519 54.3581 11.4978 54.3581 11.9016V20.5686H54.3583Z"/><path d="M9.86936 20.8438C10.4085 20.8438 10.8455 20.3986 10.8455 19.8494C10.8455 19.3003 10.4085 18.8551 9.86936 18.8551C9.33024 18.8551 8.89319 19.3003 8.89319 19.8494C8.89319 20.3986 9.33024 20.8438 9.86936 20.8438Z"/><path d="M19.1658 20.8438C19.7049 20.8438 20.142 20.3986 20.142 19.8494C20.142 19.3003 19.7049 18.8551 19.1658 18.8551C18.6267 18.8551 18.1896 19.3003 18.1896 19.8494C18.1896 20.3986 18.6267 20.8438 19.1658 20.8438Z"/><path d="M47.7143 20.8438C48.2534 20.8438 48.6905 20.3986 48.6905 19.8494C48.6905 19.3003 48.2534 18.8551 47.7143 18.8551C47.1752 18.8551 46.7381 19.3003 46.7381 19.8494C46.7381 20.3986 47.1752 20.8438 47.7143 20.8438Z"/></symbol><symbol viewBox="0 0 46 46" id="icon4" xmlns="http://www.w3.org/2000/svg"><path d="M37.8081 29.3463V37.8983H43.2994V31.7148L41.1088 29.3463H37.8081ZM41.949 36.5478H39.1585V30.6967H40.5181L41.949 32.2437V36.5478Z"/><path d="M42.2894 26.6457H35.1075V36.5478H20.9294V37.8983H36.458V27.9962H41.6991L42.7211 29.101L43.7125 28.1843L42.2894 26.6457Z"/><path d="M44.6292 29.1754L43.6377 30.0924L44.6495 31.186V41.949H43.1415C42.8277 40.41 41.4639 39.2484 39.8338 39.2484C38.2032 39.2484 36.8394 40.41 36.526 41.949H34.1396C33.8258 40.41 32.462 39.2484 30.8318 39.2484C29.2017 39.2484 27.8375 40.41 27.5241 41.949H17.4858C17.1721 40.41 15.8083 39.2484 14.1781 39.2484C12.5479 39.2484 11.1838 40.41 10.8704 41.949H9.38411C9.07071 40.41 7.70656 39.2484 6.07639 39.2484C4.44621 39.2484 3.08241 40.41 2.76866 41.949H1.35046V37.8983H19.5793V36.5478H0V43.2994H2.76866C3.08206 44.8383 4.44621 46 6.07639 46C7.70656 46 9.07036 44.8383 9.38411 43.2994H10.8704C11.1838 44.8383 12.5476 46 14.1781 46C15.8083 46 17.1721 44.8383 17.4858 43.2994H27.5238C27.8375 44.8383 29.2013 46 30.8315 46C32.4617 46 33.8258 44.8383 34.1392 43.2994H36.5257C36.8391 44.8383 38.2032 46 39.8334 46C41.4636 46 42.8274 44.8383 43.1411 43.2994H46V30.6574L44.6292 29.1754ZM6.07639 44.6495C4.9593 44.6495 4.05104 43.7413 4.05104 42.6242C4.05104 41.5075 4.9593 40.5988 6.07639 40.5988C7.19312 40.5988 8.10173 41.5075 8.10173 42.6242C8.10173 43.7413 7.19312 44.6495 6.07639 44.6495ZM14.1781 44.6495C13.061 44.6495 12.1528 43.7413 12.1528 42.6242C12.1528 41.5075 13.061 40.5988 14.1781 40.5988C15.2948 40.5988 16.2035 41.5075 16.2035 42.6242C16.2035 43.7413 15.2948 44.6495 14.1781 44.6495ZM30.8318 44.6495C29.7148 44.6495 28.8062 43.7413 28.8062 42.6242C28.8062 41.5075 29.7148 40.5988 30.8318 40.5988C31.9486 40.5988 32.8572 41.5075 32.8572 42.6242C32.8572 43.7413 31.9486 44.6495 30.8318 44.6495ZM39.8338 44.6495C38.7167 44.6495 37.8081 43.7413 37.8081 42.6242C37.8081 41.5075 38.7167 40.5988 39.8338 40.5988C40.9505 40.5988 41.8591 41.5075 41.8591 42.6242C41.8591 43.7413 40.9505 44.6495 39.8338 44.6495Z"/><path d="M17.4293 29.8134L30.1598 17.0829L31.1147 18.0375L18.3839 30.7683L17.4293 29.8134Z"/><path d="M15.6132 23.9925L20.6205 18.9851L21.5755 19.94L16.5681 24.9474L15.6132 23.9925Z"/><path d="M31.9145 9.6003L34.7794 12.4651L31.1151 16.1291L32.07 17.0836L36.6889 12.4648L35.7339 11.5098L43.7865 3.45758C44.1691 3.07504 44.3797 2.56651 44.3797 2.02534C44.3797 1.48418 44.1691 0.975647 43.7865 0.59346C43.404 0.210571 42.8951 0 42.3543 0C41.8131 0 41.3046 0.210571 40.9221 0.593109L37.8116 3.7036L38.7662 4.65854L41.877 1.54805C42.0044 1.42065 42.1739 1.35046 42.3543 1.35046C42.5347 1.35046 42.7042 1.42065 42.8316 1.54805C42.959 1.67545 43.0292 1.84496 43.0292 2.02534C43.0292 2.20573 42.959 2.37524 42.8316 2.50299L34.779 10.5552L33.8244 9.60065L37.8112 5.61348L36.8566 4.65854L32.8698 8.64571L31.9145 7.69077L21.5755 18.0302L22.5304 18.9851L31.9145 9.6003Z"/><path d="M4.05104 23.0449V29.7965H12.6027V27.096L9.5645 23.0449H4.05104ZM11.2526 28.4461H5.40115V24.3954H8.88927L11.2526 27.5459V28.4461Z"/><path d="M3.82573 33.8472H1.35046V32.4971H15.3033V33.8472H5.17619V35.1977H16.6537V31.1467H15.3033V26.1958L13.2779 23.4952L12.1977 24.3052L13.9532 26.6457V31.1467H2.70058V21.6948H10.2397L11.3873 23.225L12.4676 22.415L10.915 20.3443H1.35046V31.1467H0V35.1977H3.82573V33.8472Z"/><path d="M45.6399 15.8883H44.2895C44.2895 16.7569 43.583 17.4637 42.7144 17.4637C41.8458 17.4637 41.139 16.7569 41.139 15.8883C41.139 15.0197 41.8458 14.3132 42.7144 14.3132H43.3893V9.85719H42.0392V13.0414C40.7505 13.3471 39.7885 14.5077 39.7885 15.8883C39.7885 17.5016 41.1011 18.8142 42.7144 18.8142C44.3274 18.8142 45.6399 17.5016 45.6399 15.8883Z"/><path d="M42.0392 7.15662H43.3893V8.50673H42.0392V7.15662Z"/><path d="M25.5205 40.5988H21.9198V39.2484H25.5205V40.5988ZM20.5693 40.5988H19.2192V39.2484H20.5693V40.5988Z"/><path d="M24.003 21.3316L23.0481 20.377L24.003 19.422L24.9576 20.377L24.003 21.3316ZM25.9126 19.422L24.9576 18.4675L25.9126 17.5125L26.8675 18.4675L25.9126 19.422ZM27.8221 17.5125L26.8675 16.5579L27.8221 15.603L28.7767 16.5579L27.8221 17.5125Z"/></symbol></svg>